<svg xmlns="http://www.w3.org/2000/svg" viewBox="0 0 100 100" role="img" aria-hidden="true" fill="none" stroke="#7DA0DC" stroke-width="2" stroke-linecap="round" stroke-linejoin="round">
  <!-- kruh -->
  <circle cx="50" cy="50" r="48"/>
  <!-- monitor -->
  <rect x="27" y="28" width="42" height="32" rx="3"/>
  <line x1="27" y1="54" x2="69" y2="54"/>
  <!-- stojan -->
  <path d="M44 60 L43 70 M56 60 L57 70 M37 70 L63 70"/>
  <!-- efekt kliknutí: krátké paprsky kolem kurzoru -->
  <g stroke-width="1.8">
    <line x1="55" y1="41" x2="59" y2="41"/>
    <line x1="51.5" y1="47.1" x2="53.5" y2="50.5"/>
    <line x1="44.5" y1="47.1" x2="42.5" y2="50.5"/>
    <line x1="41" y1="41" x2="37" y2="41"/>
    <line x1="44.5" y1="34.9" x2="42.5" y2="31.5"/>
    <line x1="51.5" y1="34.9" x2="53.5" y2="31.5"/>
  </g>
  <!-- kurzor (myš) – zmenšený, na střed obrazovky (48,41) -->
  <path d="M45.55 36.9 L45.55 45.1 L47.45 42.2 L48.85 45.1 L49.75 44.7 L48.35 41.8 L50.45 41.4 Z" fill="#7DA0DC" stroke="#7DA0DC" stroke-width="1"/>
</svg>
