<?xml version="1.0"?>
<svg id="Layer_1" xmlns="http://www.w3.org/2000/svg" xmlns:xlink="http://www.w3.org/1999/xlink" version="1.1" viewBox="0 0 212 50.69">
  
  <defs>
    <clipPath id="clippath">
      <rect width="212" height="50.69" fill="none"></rect>
    </clipPath>
  </defs>
  <g clip-path="url(#clippath)">
    <path d="M113.06,46.77c-11.41,0-16.95-5.68-16.95-17.36s5.24-17.48,16.02-17.48c8.85,0,13.34,3.92,13.34,11.66s-4.12,11.02-13.34,11.02c-1.72,0-3.07-.16-4.12-.49-.8-.23-1.55-.61-2.27-1.13l-1.29-.94.31,1.57c.87,4.35,4.06,6.38,10.04,6.38,3.72,0,6.47-.75,8.22-1.31.36-.11.68-.23.95-.32.28-.1.62-.22.72-.23.45.17,1.17,2.99,1.17,5.2,0,.62-.14.97-.96,1.43-1.83.97-5.92,2.02-11.86,2.02M111.72,18.6c-4.21,0-6.52,2.68-7.08,8.19l-.04.44.4.19c1.57.75,3.53,1.17,5.51,1.17,4.14,0,6.62-1.97,6.62-5.28,0-2.99-1.97-4.7-5.4-4.7" fill="#0045bf"></path>
    <path d="M154.94,46.65c-2.2,0-3.49-.7-4.07-2.22-1.67-4.3-3.85-7.1-5.76-9.27l-.46-.52-.47.51c-2.64,2.84-4.47,5.79-5.77,9.29-.58,1.53-1.86,2.21-4.13,2.21-3.89,0-4.21-.72-4.21-1.59,0-.58.2-1.36.6-2.39,2.3-6.25,5.49-10.08,8.31-13l.41-.43-.41-.43c-2.62-2.78-5.64-6.42-8.14-12.39-.44-1.04-.65-1.83-.65-2.43,0-.77.31-1.47,4.03-1.47,2.56,0,3.53.33,4.24,2.27,1.55,4.14,3.7,6.9,5.59,9.04l.45.51.47-.49c1.9-1.99,4.27-4.82,5.84-9.06.71-1.93,1.71-2.27,4.19-2.27,3.89,0,4.21.74,4.21,1.65,0,.61-.19,1.44-.54,2.33-2.38,6.3-5.62,10.02-8.47,12.82l-.44.43.42.45c2.65,2.81,5.72,6.5,8.32,12.62.43,1.02.65,1.82.65,2.37,0,.74-.32,1.47-4.21,1.47" fill="#0045bf"></path>
    <path d="M69.39,46.19c-3.51,0-3.51-1.26-3.51-3.16V6.48c0-.91,2.6-1.53,5.02-1.53,2.88,0,3.51,1.14,3.51,6.42v28.74h17.79c1.01,0,1.12,1.19,1.12,1.7,0,3.86-.82,4.38-4.09,4.38h-19.85Z" fill="#0045bf"></path>
    <path d="M207.17,46.77c-1.61,0-3.81-.29-4.27-2.81l-.22-1.17-.84.84c-1.9,1.9-5.55,3.13-9.28,3.13-4.71,0-10.32-1.73-10.32-9.97,0-3.74,1.22-6.6,3.62-8.5,2.3-1.82,5.61-2.75,9.84-2.75,1.94,0,3.83.18,5.08.3.67.06,1.15.11,1.44.11h.63v-1.73c0-4.39-3.52-4.99-7.32-4.99-4.05,0-6.64.62-8.52,1.07l-.47.11c-.41.12-.64.16-.85.16-.98,0-1.59-2.91-1.59-5.6,0-.96,0-1.28,1.32-1.74.63-.22,4.1-1.3,11.15-1.3,3.06,0,6.94.23,9.86,2.05,3.16,1.96,4.7,5.43,4.7,10.6v13.97c0,2.7.05,5.02.66,6.12.31.56.17.8.12.89-.41.7-2.41,1.2-4.75,1.2M198.38,31.17c-4.66,0-7.67,2.12-7.67,5.4,0,2.5,1.77,4.18,4.41,4.18,4.39,0,7.42-4.34,7.67-7.44v-.02s0-1.66,0-1.66l-.52-.09c-1.46-.26-2.59-.36-3.89-.36" fill="#0045bf"></path>
    <path d="M167.79,8.47c-1.21,0-4.03-.38-4.03-3.86C163.76,2.32,165.22,0,168.49,0c2.03,0,4.21,1.06,4.21,4.03,0,3.28-2.64,4.44-4.9,4.44" fill="#0045bf"></path>
    <path d="M172.04,46.77c-5.61,0-7.7-2.5-7.7-9.21V13.81c0-.86,1.47-1.3,4.38-1.3,3.66,0,3.97,1.59,3.97,9.68v15.07c0,2.59,1.42,3.13,2.6,3.13.59,0,1.02,0,1.62-.2.17-.04.32-.08.45-.11.2-.05.41-.1.49-.1.26,0,1.01.97,1.01,5.25,0,.41-1.62,1.53-6.83,1.53" fill="#0045bf"></path>
    <path d="M38.66,34.87c-.63-.63-.77-1.6-.33-2.36,2.47-4.37,2.38-9.84-.23-14.27-.48-.82-.28-1.9.47-2.52l5.13-4.21c.8-.66,1.96-.6,2.69.14.1.1.19.22.27.34,5.26,8.15,5.37,18.64.28,26.72-.31.49-.81.82-1.38.92-.57.09-1.13-.06-1.58-.42l-5.15-4.2c-.05-.04-.1-.09-.15-.14Z" fill="#7da0dc"></path>
    <path d="M4.3,39.06c-.1-.1-.19-.22-.27-.34C-1.24,30.57-1.35,20.08,3.75,12c.31-.49.81-.83,1.38-.92.57-.09,1.14.06,1.58.42l5.15,4.2c.05.04.11.09.15.14.63.63.76,1.6.33,2.36-2.47,4.37-2.38,9.84.23,14.27.48.82.28,1.9-.47,2.52l-5.13,4.21c-.8.66-1.96.6-2.69-.14" fill="#7da0dc"></path>
    <path d="M15.82,12.03s-.09-.1-.14-.15l-4.2-5.15c-.37-.45-.51-1.01-.42-1.58.09-.57.43-1.08.92-1.38,8.08-5.09,18.57-4.99,26.72.28.12.08.24.17.34.27.74.74.8,1.89.14,2.69l-4.21,5.13c-.62.75-1.7.95-2.52.47-4.44-2.61-9.91-2.7-14.27-.23-.76.43-1.73.29-2.36-.33" fill="#0045bf"></path>
    <path d="M11.63,46.4c-.74-.74-.8-1.89-.14-2.69l4.21-5.13c.62-.75,1.7-.95,2.52-.47,4.44,2.61,9.91,2.7,14.28.23.76-.43,1.73-.29,2.36.33.05.05.09.1.14.15l4.2,5.15c.37.45.52,1.01.42,1.58-.09.57-.43,1.07-.92,1.38-8.08,5.09-18.57,4.98-26.72-.28-.12-.08-.24-.17-.34-.27" fill="#0045bf"></path>
  </g>
</svg>