<?xml version="1.0"?>
<svg id="Layer_1" xmlns="http://www.w3.org/2000/svg" version="1.1" viewBox="0 0 185.56 126.81">
  
  <path d="M116.87,44.27c-.8-.8-.97-2.03-.43-3,3.14-5.54,3.03-12.49-.29-18.13-.61-1.04-.36-2.42.59-3.2l6.51-5.35c1.01-.83,2.48-.76,3.42.18.13.13.25.28.35.43,6.68,10.36,6.82,23.68.35,33.94-.39.62-1.03,1.05-1.76,1.17-.73.12-1.44-.07-2.01-.54l-6.54-5.33c-.07-.06-.13-.11-.19-.18Z" fill="#7da0dc"></path>
  <path d="M73.22,49.59c-.13-.13-.25-.28-.35-.43-6.68-10.36-6.82-23.68-.35-33.94.39-.62,1.03-1.05,1.76-1.17.73-.12,1.44.07,2.01.53l6.54,5.33c.07.06.13.11.19.17.8.8.97,2.03.42,3-3.14,5.54-3.03,12.49.29,18.13.61,1.04.36,2.42-.59,3.2l-6.51,5.35c-1.01.83-2.48.76-3.42-.18" fill="#7da0dc"></path>
  <path d="M87.86,15.26c-.06-.06-.12-.13-.18-.19l-5.33-6.54c-.46-.57-.65-1.28-.54-2.01.12-.72.54-1.36,1.17-1.76,10.26-6.47,23.58-6.33,33.94.35.16.1.3.22.43.35.93.93,1.01,2.4.18,3.42l-5.35,6.51c-.78.95-2.16,1.21-3.2.59-5.64-3.32-12.58-3.43-18.13-.29-.97.55-2.2.37-3-.42" fill="#0045bf"></path>
  <path d="M82.54,58.91c-.93-.93-1.01-2.4-.18-3.42l5.35-6.51c.78-.95,2.16-1.21,3.2-.59,5.64,3.32,12.58,3.43,18.13.29.97-.55,2.2-.37,3,.42.06.06.12.13.17.19l5.33,6.54c.46.57.65,1.28.53,2.01-.12.72-.54,1.36-1.17,1.76-10.26,6.47-23.58,6.33-33.94-.35-.16-.1-.3-.22-.43-.35" fill="#0045bf"></path>
  <path d="M59.91,126.81c-14.49,0-21.53-7.21-21.53-22.04s6.65-22.19,20.34-22.19c11.25,0,16.95,4.98,16.95,14.8s-5.23,13.99-16.95,13.99c-2.19,0-3.9-.21-5.23-.63-1.01-.3-1.97-.78-2.88-1.44l-1.64-1.19.4,1.99c1.1,5.53,5.16,8.1,12.75,8.1,4.72,0,8.22-.95,10.44-1.66.46-.14.86-.29,1.21-.41.35-.12.79-.28.92-.29.57.22,1.49,3.8,1.49,6.6,0,.78-.18,1.23-1.22,1.82-2.33,1.23-7.52,2.56-15.06,2.56M58.21,91.03c-5.34,0-8.28,3.4-8.99,10.4l-.06.56.5.24c1.99.96,4.48,1.48,7,1.48,5.26,0,8.41-2.51,8.41-6.71,0-3.79-2.5-5.97-6.86-5.97" fill="#0045bf"></path>
  <path d="M113.1,126.66c-2.79,0-4.44-.89-5.17-2.82-2.12-5.46-4.89-9.02-7.32-11.77l-.58-.66-.6.64c-3.35,3.61-5.68,7.36-7.33,11.79-.74,1.94-2.36,2.81-5.24,2.81-4.94,0-5.34-.91-5.34-2.02,0-.73.25-1.73.76-3.04,2.92-7.94,6.97-12.8,10.55-16.52l.53-.55-.52-.55c-3.33-3.53-7.16-8.16-10.34-15.73-.56-1.32-.82-2.33-.82-3.09,0-.98.39-1.87,5.12-1.87,3.25,0,4.49.42,5.39,2.88,1.97,5.26,4.7,8.76,7.1,11.49l.57.65.6-.63c2.41-2.53,5.43-6.13,7.41-11.51.89-2.45,2.17-2.88,5.32-2.88,4.94,0,5.34.95,5.34,2.09,0,.78-.24,1.83-.68,2.97-3.02,8-7.13,12.72-10.76,16.28l-.56.55.54.57c3.37,3.57,7.26,8.26,10.56,16.03.55,1.3.82,2.31.82,3.02,0,.94-.41,1.87-5.34,1.87" fill="#0045bf"></path>
  <path d="M4.45,126.07C0,126.07,0,124.47,0,122.06v-46.42c0-1.16,3.3-1.94,6.38-1.94,3.66,0,4.45,1.45,4.45,8.15v36.49h22.6c1.29,0,1.42,1.51,1.42,2.16,0,4.91-1.04,5.56-5.19,5.56H4.45Z" fill="#0045bf"></path>
  <path d="M179.43,126.81c-2.05,0-4.83-.37-5.43-3.57l-.27-1.48-1.07,1.07c-2.42,2.42-7.04,3.98-11.78,3.98-5.98,0-13.1-2.2-13.1-12.66,0-4.75,1.55-8.38,4.6-10.8,2.92-2.31,7.12-3.49,12.5-3.49,2.47,0,4.86.23,6.45.38.85.08,1.47.14,1.83.14h.79v-2.2c0-5.57-4.47-6.34-9.29-6.34-5.14,0-8.43.78-10.82,1.36l-.59.14c-.52.15-.81.2-1.07.2-1.24,0-2.02-3.69-2.02-7.11,0-1.22,0-1.63,1.68-2.21.8-.28,5.21-1.66,14.15-1.66,3.88,0,8.82.3,12.52,2.6,4.02,2.49,5.97,6.89,5.97,13.46v17.74c0,3.43.06,6.38.84,7.78.4.71.21,1.02.15,1.14-.52.89-3.06,1.53-6.03,1.53M168.27,107c-5.91,0-9.74,2.69-9.74,6.85,0,3.17,2.25,5.3,5.6,5.3,5.57,0,9.42-5.51,9.73-9.45v-.03s0-2.1,0-2.1l-.66-.11c-1.86-.32-3.29-.46-4.94-.46" fill="#0045bf"></path>
  <path d="M129.42,78.17c-1.54,0-5.12-.48-5.12-4.9,0-2.92,1.86-5.86,6.01-5.86,2.58,0,5.34,1.35,5.34,5.12,0,4.16-3.35,5.64-6.23,5.64" fill="#0045bf"></path>
  <path d="M134.81,126.81c-7.13,0-9.78-3.17-9.78-11.7v-30.16c0-1.09,1.87-1.65,5.56-1.65,4.64,0,5.05,2.01,5.05,12.29v19.14c0,3.28,1.8,3.97,3.31,3.97.75,0,1.29,0,2.06-.25.21-.05.4-.09.57-.14.26-.06.52-.13.62-.13.33,0,1.28,1.23,1.28,6.67,0,.52-2.05,1.94-8.67,1.94" fill="#0045bf"></path>
</svg>