<svg xmlns="http://www.w3.org/2000/svg" viewBox="0 0 50 50" width="50" height="50">
  <path d="M38.66,34.87c-.63-.63-.77-1.6-.33-2.36,2.47-4.37,2.38-9.84-.23-14.27-.48-.82-.28-1.9.47-2.52l5.13-4.21c.8-.66,1.96-.6,2.69.14.1.1.19.22.27.34,5.26,8.15,5.37,18.64.28,26.72-.31.49-.81.82-1.38.92-.57.09-1.13-.06-1.58-.42l-5.15-4.2c-.05-.04-.1-.09-.15-.14Z" fill="#7da0dc"></path>
  <path d="M4.3,39.06c-.1-.1-.19-.22-.27-.34C-1.24,30.57-1.35,20.08,3.75,12c.31-.49.81-.83,1.38-.92.57-.09,1.14.06,1.58.42l5.15,4.2c.05.04.11.09.15.14.63.63.76,1.6.33,2.36-2.47,4.37-2.38,9.84.23,14.27.48.82.28,1.9-.47,2.52l-5.13,4.21c-.8.66-1.96.6-2.69-.14" fill="#7da0dc"></path>
  <path d="M15.82,12.03s-.09-.1-.14-.15l-4.2-5.15c-.37-.45-.51-1.01-.42-1.58.09-.57.43-1.08.92-1.38,8.08-5.09,18.57-4.99,26.72.28.12.08.24.17.34.27.74.74.8,1.89.14,2.69l-4.21,5.13c-.62.75-1.7.95-2.52.47-4.44-2.61-9.91-2.7-14.27-.23-.76.43-1.73.29-2.36-.33" fill="#0045bf"></path>
  <path d="M11.63,46.4c-.74-.74-.8-1.89-.14-2.69l4.21-5.13c.62-.75,1.7-.95,2.52-.47,4.44,2.61,9.91,2.7,14.28.23.76-.43,1.73-.29,2.36.33.05.05.09.1.14.15l4.2,5.15c.37.45.52,1.01.42,1.58-.09.57-.43,1.07-.92,1.38-8.08,5.09-18.57,4.98-26.72-.28-.12-.08-.24-.17-.34-.27" fill="#0045bf"></path>
</svg>