<svg xmlns="http://www.w3.org/2000/svg" viewBox="0 0 600 600" fill="none">
  
  <circle cx="300" cy="300" r="270" stroke="#7da0dc" stroke-width="1" stroke-opacity="0.15" stroke-dasharray="3 9"></circle>
  <circle cx="300" cy="300" r="220" stroke="#7da0dc" stroke-width="1" stroke-opacity="0.22"></circle>

  
  
  <path d="M463.92,418.44c-7.56-7.56-9.24-19.2-3.96-28.32,29.64-52.44,28.56-118.08-2.76-171.24-5.76-9.84-3.36-22.8,5.64-30.24l61.56-50.52c9.6-7.92,23.52-7.2,32.28,1.68,1.2,1.2,2.28,2.64,3.24,4.08,63.12,97.8,64.44,223.68,3.36,320.64-3.72,5.88-9.72,9.84-16.56,11.04-6.84,1.08-13.56-.72-18.96-5.04l-61.8-50.4c-.6-.48-1.2-1.08-1.8-1.68Z" fill="#7da0dc" fill-opacity="0.95"></path>

  
  <path d="M51.6,468.72c-1.2-1.2-2.28-2.64-3.24-4.08C-14.88,366.84-16.2,240.96,44.88,144c3.72-5.88,9.72-9.96,16.56-11.04,6.84-1.08,13.68.72,18.96,5.04l61.8,50.4c.6.48,1.32,1.08,1.8,1.68,7.56,7.56,9.12,19.2,3.96,28.32-29.64,52.44-28.56,118.08,2.76,171.24,5.76,9.84,3.36,22.8-5.64,30.24l-61.56,50.52c-9.6,7.92-23.52,7.2-32.28-1.68" fill="#7da0dc" fill-opacity="0.95"></path>

  
  <path d="M189.84,144.36s-1.08-1.2-1.68-1.8l-50.4-61.8c-4.44-5.4-6.12-12.12-5.04-18.96,1.08-6.84,5.16-12.96,11.04-16.56,96.96-61.08,222.84-59.88,320.64,3.36,1.44.96,2.88,2.04,4.08,3.24,8.88,8.88,9.6,22.68,1.68,32.28l-50.52,61.56c-7.44,9-20.4,11.4-30.24,5.64-53.28-31.32-118.92-32.4-171.24-2.76-9.12,5.16-20.76,3.48-28.32-4.2" fill="#0045bf"></path>

  
  <path d="M139.56,556.8c-8.88-8.88-9.6-22.68-1.68-32.28l50.52-61.56c7.44-9,20.4-11.4,30.24-5.64,53.28,31.32,118.92,32.4,171.36,2.76,9.12-5.16,20.76-3.48,28.32,3.96.6.6,1.08,1.2,1.68,1.8l50.4,61.8c4.44,5.4,6.24,12.12,5.04,18.96-1.08,6.84-5.16,12.84-11.04,16.56-96.96,61.08-222.84,59.76-320.64-3.36-1.44-.96-2.88-2.04-4.08-3.24" fill="#0045bf"></path>
</svg>