<svg xmlns="http://www.w3.org/2000/svg" viewBox="0 0 1393 162" preserveAspectRatio="xMidYMid meet" role="img" aria-hidden="true">
<path d="M0 0 C3.4 1.41 4.97 2.95 7.03 5.97 C7.59 6.78 8.14 7.59 8.72 8.42 C9.01 8.86 9.01 8.86 10.5 11.06 C11.76 12.9 13.02 14.73 14.28 16.56 C14.6 17.02 14.6 17.02 16.18 19.35 C27.61 36.04 39.2 52.79 52.48 68.08 C54.93 70.92 57.28 73.82 59.62 76.75 C66.27 84.89 73.54 91.78 82 98 C80.76 101.73 79.72 102.03 76.36 103.93 C75.4 104.47 74.44 105.02 73.44 105.58 C72.41 106.15 71.38 106.72 70.31 107.31 C69.26 107.9 68.21 108.48 67.13 109.08 C47.91 119.67 28.73 126.41 6.62 126.31 C5.41 126.31 4.2 126.31 2.95 126.31 C-7.88 126.19 -18.35 124.94 -29 123 C-29 122.34 -29 121.68 -29 121 C-30.16 120.74 -31.32 120.49 -32.52 120.22 C-36.87 119.13 -40.7 117.48 -44.69 115.44 C-45.38 115.09 -46.07 114.73 -46.78 114.37 C-58.73 108.15 -68.91 99.83 -79 91 C-78.44 87.45 -77.34 86.1 -74.56 83.88 C-71.19 81.07 -68.08 78.13 -65 75 C-61.48 71.44 -57.87 68.1 -54.06 64.84 C-51.61 62.65 -49.31 60.34 -47 58 C-43.48 54.44 -39.87 51.1 -36.06 47.84 C-33.61 45.65 -31.31 43.34 -29 41 C-26.1 38.07 -23.2 35.24 -20.06 32.56 C-15.63 28.78 -11.59 24.62 -7.52 20.45 C-5 18 -5 18 -2.68 16.62 C-1 15 -1 15 -0.64 11.68 C-0.7 10.42 -0.76 9.17 -0.81 7.88 C-0.9 5.58 -0.97 3.29 -1 1 C-0.67 0.67 -0.34 0.34 0 0 Z M2 9 C2.66 35.4 3.32 61.8 4 89 C7.95 85.05 8.95 83.22 10.69 78.12 C11.1 76.93 11.52 75.74 11.95 74.51 C18.03 54.19 12.74 28.84 4 10 C3.34 9.67 2.68 9.34 2 9 Z M6 10 C7 12 7 12 7 12 Z M7 12 C7.65 15.72 8.65 19.27 9.76 22.87 C16.13 43.6 18.69 65.75 8.81 85.81 C7.89 87.55 6.96 89.28 6 91 C12.39 90.39 18.52 89.37 24.78 87.97 C25.67 87.77 26.56 87.58 27.48 87.37 C29.35 86.96 31.22 86.55 33.09 86.13 C35.95 85.5 38.82 84.87 41.69 84.24 C43.51 83.84 45.33 83.43 47.15 83.03 C47.58 82.94 47.58 82.94 49.75 82.46 C55.77 81.12 55.77 81.12 58 80 C56.36 76.05 53.63 73.15 50.81 70 C38.91 56.37 28.52 41.51 18.22 26.65 C17.96 26.27 17.96 26.27 16.64 24.38 C15.45 22.65 14.26 20.92 13.07 19.19 C12.44 18.28 11.81 17.36 11.16 16.41 C10.58 15.57 10 14.73 9.4 13.86 C8.94 13.24 8.48 12.63 8 12 C7.67 12 7.34 12 7 12 Z M-3 20 C-5.36 22.19 -7.71 24.37 -10.06 26.56 C-10.39 26.87 -10.39 26.87 -12.05 28.41 C-15.94 32.03 -19.74 35.73 -23.49 39.5 C-25.17 41.17 -26.93 42.73 -28.75 44.25 C-32.16 47.18 -35.34 50.3 -38.5 53.5 C-42.19 57.24 -45.98 60.78 -49.97 64.19 C-53.3 67.16 -56.39 70.38 -59.52 73.55 C-62.88 76.87 -66.4 79.96 -70 83 C-68 84 -68 84 -65.49 83.29 C-64.44 82.93 -63.39 82.56 -62.31 82.19 C-41.4 75.5 -20.91 78.1 0 83 C-0.13 82.69 -0.13 82.69 -0.8 81.13 C-1.16 80.28 -1.51 79.44 -1.88 78.56 C-2.22 77.74 -2.57 76.92 -2.93 76.07 C-5.6 68.42 -6.39 61.14 -6.38 53.06 C-6.38 52.56 -6.38 52.56 -6.38 50.05 C-6.27 41.83 -4.9 34.33 -2.78 26.42 C-2 23 -2 23 -3 20 Z M0 22 C-5.33 38.38 -8.49 57.46 -2 74 C-1.71 74.73 -1.43 75.46 -1.13 76.21 C-0.46 77.82 0.26 79.42 1 81 C1.33 81 1.66 81 2 81 C2.12 61.3 1.92 41.68 1 22 C0.67 22 0.34 22 0 22 Z M-73 88 C-73 88.33 -73 88.66 -73 89 C-65.44 89.4 -57.87 89.79 -50.31 90.17 C-46.79 90.35 -43.28 90.53 -39.77 90.72 C-35.71 90.93 -31.65 91.14 -27.59 91.34 C-26.97 91.38 -26.97 91.38 -23.85 91.54 C-15.22 91.97 -6.64 92.07 2 92 C2 90.02 2 88.04 2 86 C-21.21 75.85 -50.4 77.35 -73 88 Z M53.94 82.79 C53.13 82.97 52.32 83.14 51.49 83.32 C50.61 83.51 49.74 83.7 48.84 83.9 C47.95 84.09 47.05 84.29 46.12 84.49 C44.22 84.9 42.32 85.32 40.42 85.74 C37.51 86.37 34.6 87 31.69 87.62 C29.85 88.03 28 88.43 26.16 88.84 C25.28 89.02 24.41 89.21 23.51 89.4 C22.7 89.58 21.89 89.76 21.06 89.95 C20.7 90.02 20.7 90.02 18.9 90.42 C17 91 17 91 14 93 C21.7 93.57 29.41 94.14 37.11 94.71 C39.73 94.9 42.35 95.1 44.97 95.29 C48.74 95.57 52.51 95.85 56.29 96.12 C57.45 96.21 58.62 96.3 59.82 96.39 C65.23 96.78 70.58 97.11 76 97 C75.28 96.28 74.56 95.57 73.82 94.83 C72.01 93.01 70.21 91.18 68.43 89.32 C68.01 88.89 68.01 88.89 65.88 86.69 C65.03 85.8 64.18 84.92 63.3 84.01 C60.08 81.2 57.85 81.95 53.94 82.79 Z M-69 91 C-55.3 104.7 -16.17 102.03 2 103 C2.02 101.7 2.04 100.4 2.06 99.06 C2.07 98.33 2.09 97.6 2.1 96.85 C2 95 2 95 1 94 C-0.96 93.82 -2.93 93.7 -4.89 93.61 C-5.52 93.58 -5.52 93.58 -8.72 93.43 C-10.11 93.37 -11.5 93.31 -12.89 93.25 C-14.31 93.18 -15.72 93.11 -17.14 93.05 C-20.13 92.91 -23.11 92.78 -26.09 92.64 C-29.9 92.47 -33.71 92.3 -37.53 92.12 C-41.17 91.95 -44.81 91.79 -48.45 91.62 C-48.79 91.61 -48.79 91.61 -50.54 91.53 C-52.52 91.44 -54.49 91.35 -56.46 91.26 C-57.58 91.21 -58.7 91.16 -59.86 91.11 C-62.91 91 -65.95 90.98 -69 91 Z M-71 94 C-56.65 108.99 -37.99 117.51 -18 122 C-16.91 122.25 -15.83 122.49 -14.71 122.75 C16.42 128.58 48.04 119.31 74 102 C70.66 100.33 66.99 101.44 63.38 101.88 C47.03 103.83 30.75 104.24 14.31 104.25 C13.28 104.25 12.25 104.25 11.18 104.25 C-12.96 104.23 -36.04 102.31 -59.57 96.59 C-63.37 95.67 -67.18 94.84 -71 94 Z M4 95 C4 97.64 4 100.28 4 103 C17.69 103.26 31.28 102.94 44.94 102.06 C45.28 102.04 45.28 102.04 47.01 101.93 C54.36 101.46 61.69 100.89 69 100 C66.11 98.37 63.86 97.71 60.56 97.5 C59.69 97.44 58.82 97.38 57.92 97.32 C56.98 97.26 56.04 97.21 55.07 97.15 C54.58 97.12 54.58 97.12 52.11 96.96 C50.03 96.82 47.95 96.69 45.87 96.57 C42.74 96.38 39.61 96.17 36.47 95.97 C25.63 95.28 14.86 94.79 4 95 Z " fill="#2f6df0" transform="translate(1293,11)"/>
<path d="M0 0 C2.97 0 5.94 0 9 0 C9 0.99 9 1.98 9 3 C5.7 3 2.4 3 -1 3 C-0.67 2.01 -0.34 1.02 0 0 Z " fill="#8db0f7" transform="translate(295,43)"/>
<path d="M0 0 C3.3 0 6.6 0 10 0 C10 0.99 10 1.98 10 3 C6.7 3 3.4 3 0 3 C0 2.01 0 1.02 0 0 Z " fill="#8db0f7" transform="translate(310,43)"/>
<path d="M0 0 C3.3 0 6.6 0 10 0 C10 0.99 10 1.98 10 3 C6.7 3 3.4 3 0 3 C0 2.01 0 1.02 0 0 Z " fill="#8db0f7" transform="translate(326,43)"/>
<path d="M0 0 C3.63 0 7.26 0 11 0 C10.67 0.99 10.34 1.98 10 3 C7.03 3 4.06 3 1 3 C0.67 2.01 0.34 1.02 0 0 Z " fill="#8db0f7" transform="translate(342,43)"/>
<path d="M0 0 C3.3 0 6.6 0 10 0 C9.67 0.99 9.34 1.98 9 3 C6.03 3 3.06 3 0 3 C0 2.01 0 1.02 0 0 Z " fill="#8db0f7" transform="translate(359,43)"/>
<path d="M0 0 C3.3 0 6.6 0 10 0 C10 0.99 10 1.98 10 3 C6.7 3 3.4 3 0 3 C0 2.01 0 1.02 0 0 Z " fill="#8db0f7" transform="translate(375,43)"/>
<path d="M0 0 C3.3 0 6.6 0 10 0 C10 0.99 10 1.98 10 3 C6.7 3 3.4 3 0 3 C0 2.01 0 1.02 0 0 Z " fill="#8db0f7" transform="translate(391,43)"/>
<path d="M0 0 C3.3 0 6.6 0 10 0 C10 0.99 10 1.98 10 3 C6.7 3 3.4 3 0 3 C0 2.01 0 1.02 0 0 Z " fill="#8db0f7" transform="translate(407,43)"/>
<path d="M0 0 C7.75 -0.12 7.75 -0.12 10 1 C9.67 1.99 9.34 2.98 9 4 C2.25 4.12 2.25 4.12 0 3 C0 2.01 0 1.02 0 0 Z " fill="#8db0f7" transform="translate(423,43)"/>
<path d="M0 0 C2.64 0 5.28 0 8 0 C8.33 0.99 8.66 1.98 9 3 C7.51 3.16 7.51 3.16 0 4 C0 2.68 0 1.36 0 0 Z " fill="#8db0f7" transform="translate(247,44)"/>
<path d="M0 0 C3.3 0 6.6 0 10 0 C10 0.99 10 1.98 10 3 C6.7 3 3.4 3 0 3 C0 2.01 0 1.02 0 0 Z " fill="#8db0f7" transform="translate(262,44)"/>
<path d="M0 0 C-0.33 0.99 -0.66 1.98 -1 3 C-3.97 3 -6.94 3 -10 3 C-10 2.01 -10 1.02 -10 0 C-2.25 -1.12 -2.25 -1.12 0 0 Z " fill="#8db0f7" transform="translate(288,44)"/>
<path d="M0 0 C2.97 0 5.94 0 9 0 C9.33 0.99 9.66 1.98 10 3 C6.7 3 3.4 3 0 3 C0 2.01 0 1.02 0 0 Z " fill="#8db0f7" transform="translate(439,44)"/>
<path d="M0 0 C0.41 0.01 0.41 0.01 2.5 0.04 C3.32 0.04 4.15 0.05 5 0.06 C5.64 0.07 6.28 0.09 6.93 0.1 C7.26 1.09 7.59 2.08 7.93 3.1 C6.45 3.26 6.45 3.26 -1.07 4.1 C-1.73 3.11 -2.39 2.12 -3.07 1.1 C-2.07 0.1 -2.07 0.1 0 0 Z " fill="#8db0f7" transform="translate(216.06640625,44.90234375)"/>
<path d="M0 0 C3.3 0 6.6 0 10 0 C9.67 0.99 9.34 1.98 9 3 C6.03 3 3.06 3 0 3 C0 2.01 0 1.02 0 0 Z " fill="#8db0f7" transform="translate(230,45)"/>
<path d="M0 0 C3.3 0 6.6 0 10 0 C10 0.99 10 1.98 10 3 C7.03 3 4.06 3 1 3 C0.67 2.01 0.34 1.02 0 0 Z " fill="#8db0f7" transform="translate(455,45)"/>
<path d="M0 0 C2.97 0.33 5.94 0.66 9 1 C9 1.99 9 2.98 9 4 C6.03 4 3.06 4 0 4 C0 2.68 0 1.36 0 0 Z " fill="#8db0f7" transform="translate(472,45)"/>
<path d="M0 0 C0.33 0.99 0.66 1.98 1 3 C-2.3 3.33 -5.6 3.66 -9 4 C-9.33 3.01 -9.66 2.02 -10 1 C-6.79 -0.61 -3.56 -0.06 0 0 Z " fill="#8db0f7" transform="translate(191,46)"/>
<path d="M0 0 C3.63 0 7.26 0 11 0 C10.67 0.99 10.34 1.98 10 3 C7.03 3 4.06 3 1 3 C0.67 2.01 0.34 1.02 0 0 Z " fill="#8db0f7" transform="translate(197,46)"/>
<path d="M0 0 C2.97 0 5.94 0 9 0 C9 0.99 9 1.98 9 3 C5.7 3 2.4 3 -1 3 C-0.67 2.01 -0.34 1.02 0 0 Z " fill="#8db0f7" transform="translate(166,47)"/>
<path d="M0 0 C2.97 0 5.94 0 9 0 C9.33 0.99 9.66 1.98 10 3 C7.03 3 4.06 3 1 3 C0.67 2.01 0.34 1.02 0 0 Z " fill="#8db0f7" transform="translate(487,47)"/>
<path d="M0 0 C2.97 0 5.94 0 9 0 C9 0.99 9 1.98 9 3 C7.51 3.16 7.51 3.16 0 4 C0 2.68 0 1.36 0 0 Z " fill="#8db0f7" transform="translate(134,48)"/>
<path d="M0 0 C0 0.99 0 1.98 0 3 C-2.97 3 -5.94 3 -9 3 C-9.33 2.01 -9.66 1.02 -10 0 C-3.38 -1.12 -3.38 -1.12 0 0 Z " fill="#8db0f7" transform="translate(159,48)"/>
<path d="M0 0 C3.3 0.33 6.6 0.66 10 1 C10 1.99 10 2.98 10 4 C3.38 4.12 3.38 4.12 0 3 C0 2.01 0 1.02 0 0 Z " fill="#8db0f7" transform="translate(503,48)"/>
<path d="M0 0 C3.3 0 6.6 0 10 0 C10 0.99 10 1.98 10 3 C6.7 3 3.4 3 0 3 C0 2.01 0 1.02 0 0 Z " fill="#8db0f7" transform="translate(117,49)"/>
<path d="M0 0 C2.97 0 5.94 0 9 0 C9 0.99 9 1.98 9 3 C7.52 3.16 7.52 3.16 0 4 C0 2.68 0 1.36 0 0 Z " fill="#8db0f7" transform="translate(86,50)"/>
<path d="M0 0 C-0.33 0.99 -0.66 1.98 -1 3 C-3.97 3 -6.94 3 -10 3 C-10 2.01 -10 1.02 -10 0 C-3.38 -1.12 -3.38 -1.12 0 0 Z " fill="#8db0f7" transform="translate(111,50)"/>
<path d="M0 0 C1.49 0.33 1.49 0.33 9 2 C9 2.99 9 3.98 9 5 C6.03 4.67 3.06 4.34 0 4 C0 2.68 0 1.36 0 0 Z " fill="#8db0f7" transform="translate(520,50)"/>
<path d="M0 0 C3.3 0 6.6 0 10 0 C10 0.99 10 1.98 10 3 C6.7 3 3.4 3 0 3 C0 2.01 0 1.02 0 0 Z " fill="#8db0f7" transform="translate(69,51)"/>
<path d="M0 0 C3.3 0 6.6 0 10 0 C9.67 0.99 9.34 1.98 9 3 C6.03 3 3.06 3 0 3 C0 2.01 0 1.02 0 0 Z " fill="#8db0f7" transform="translate(53,52)"/>
<path d="M0 0 C-0.33 0.99 -0.66 1.98 -1 3 C-3.97 3 -6.94 3 -10 3 C-10 2.01 -10 1.02 -10 0 C-3.38 -1.12 -3.38 -1.12 0 0 Z " fill="#8db0f7" transform="translate(47,53)"/>
<path d="M0 0 C1.48 0.25 2.96 0.53 4.44 0.81 C4.85 0.89 4.85 0.89 6.93 1.27 C7.27 1.39 7.27 1.39 9 2 C9.33 2.99 9.66 3.98 10 5 C7.03 4.67 4.06 4.34 1 4 C0.67 2.68 0.34 1.36 0 0 Z " fill="#8db0f7" transform="translate(535,53)"/>
<path d="M0 0 C3.32 0.55 6.15 1.17 9 3 C9.33 3.99 9.66 4.98 10 6 C6.06 5.44 3.25 4.32 0 2 C0 1.34 0 0.68 0 0 Z " fill="#8db0f7" transform="translate(550,58)"/>
<path d="M0 0 C5.57 5.14 5.57 5.14 6 9 C5.01 9.33 4.02 9.66 3 10 C0.97 6.27 0 4.33 0 0 Z " fill="#8db0f7" transform="translate(564,66)"/>
<path d="M0 0 C0.66 0.33 1.32 0.66 2 1 C1.43 4.96 0.19 7.67 -2 11 C-2.66 10.01 -3.32 9.02 -4 8 C-2.68 5.36 -1.36 2.72 0 0 Z " fill="#8db0f7" transform="translate(567,81)"/>
<path d="M0 0 C0.99 0 1.98 0 3 0 C2.44 3.94 1.32 6.75 -1 10 C-1.66 10 -2.32 10 -3 10 C-2.49 6.28 -1.88 3.27 0 0 Z " fill="#8db0f7" transform="translate(559,96)"/>
<path d="M0 0 C0.99 0.33 1.98 0.66 3 1 C3.33 3.97 3.66 6.94 4 10 C3.01 10 2.02 10 1 10 C-0.16 6.53 -0.07 3.64 0 0 Z " fill="#8db0f7" transform="translate(553,111)"/>
<path d="M0 0 C3.49 0.65 6.12 1.92 9 4 C9 4.99 9 5.98 9 7 C2.3 5.06 2.3 5.06 0 2 C0 1.34 0 0.68 0 0 Z " fill="#8db0f7" transform="translate(559,125)"/>
<path d="M0 0 C0.33 0.99 0.66 1.98 1 3 C-2.3 3.33 -5.6 3.66 -9 4 C-9.33 3.01 -9.66 2.02 -10 1 C-6.79 -0.61 -3.56 -0.06 0 0 Z " fill="#2f6df0" transform="translate(1257,131)"/>
<path d="M0 0 C2.97 0.99 5.94 1.98 9 3 C9 3.99 9 4.98 9 6 C5.7 5.01 2.4 4.02 -1 3 C-0.67 2.01 -0.34 1.02 0 0 Z " fill="#8db0f7" transform="translate(574,132)"/>
<path d="M0 0 C0.41 0.01 0.41 0.01 2.5 0.04 C3.32 0.04 4.15 0.05 5 0.06 C5.64 0.07 6.28 0.09 6.93 0.1 C7.26 1.09 7.59 2.08 7.93 3.1 C6.45 3.26 6.45 3.26 -1.07 4.1 C-1.73 3.11 -2.39 2.12 -3.07 1.1 C-2.07 0.1 -2.07 0.1 0 0 Z " fill="#2f6df0" transform="translate(1234.06640625,131.90234375)"/>
<path d="M0 0 C2.97 0 5.94 0 9 0 C9 0.99 9 1.98 9 3 C6.03 3 3.06 3 0 3 C0 2.01 0 1.02 0 0 Z " fill="#2f6df0" transform="translate(1216,133)"/>
<path d="M0 0 C2.97 0 5.94 0 9 0 C9 0.99 9 1.98 9 3 C6.03 3 3.06 3 0 3 C0 2.01 0 1.02 0 0 Z " fill="#8db0f7" transform="translate(1200,134)"/>
<path d="M0 0 C-0.33 1.32 -0.66 2.64 -1 4 C-3.64 4 -6.28 4 -9 4 C-9.33 3.01 -9.66 2.02 -10 1 C-6.59 0.22 -3.49 -0.1 0 0 Z " fill="#8db0f7" transform="translate(1177,135)"/>
<path d="M0 0 C3.3 0 6.6 0 10 0 C10 0.99 10 1.98 10 3 C6.7 3 3.4 3 0 3 C0 2.01 0 1.02 0 0 Z " fill="#8db0f7" transform="translate(1183,135)"/>
<path d="M0 0 C2.97 0 5.94 0 9 0 C9 0.99 9 1.98 9 3 C7.52 3.16 7.52 3.16 0 4 C0 2.68 0 1.36 0 0 Z " fill="#8db0f7" transform="translate(1152,136)"/>
<path d="M0 0 C2.97 0.33 5.94 0.66 9 1 C9.33 1.99 9.66 2.98 10 4 C7.03 3.67 4.06 3.34 1 3 C0.67 2.01 0.34 1.02 0 0 Z " fill="#8db0f7" transform="translate(589,137)"/>
<path d="M0 0 C2.97 0 5.94 0 9 0 C9 0.99 9 1.98 9 3 C5.7 3 2.4 3 -1 3 C-0.67 2.01 -0.34 1.02 0 0 Z " fill="#8db0f7" transform="translate(1136,137)"/>
<path d="M0 0 C3.3 0 6.6 0 10 0 C10 0.99 10 1.98 10 3 C6.7 3 3.4 3 0 3 C0 2.01 0 1.02 0 0 Z " fill="#8db0f7" transform="translate(1119,138)"/>
<path d="M0 0 C2.64 0 5.28 0 8 0 C8.33 0.99 8.66 1.98 9 3 C7.52 3.16 7.52 3.16 0 4 C0 2.68 0 1.36 0 0 Z " fill="#8db0f7" transform="translate(1088,139)"/>
<path d="M0 0 C-0.33 0.99 -0.66 1.98 -1 3 C-3.97 3 -6.94 3 -10 3 C-10 2.01 -10 1.02 -10 0 C-3.38 -1.12 -3.38 -1.12 0 0 Z " fill="#8db0f7" transform="translate(1113,139)"/>
<path d="M0 0 C1.26 -0.02 2.52 -0.04 3.81 -0.06 C4.52 -0.07 5.23 -0.09 5.96 -0.1 C8 0 8 0 11 1 C10.67 1.99 10.34 2.98 10 4 C7.03 3.67 4.06 3.34 1 3 C0.67 2.01 0.34 1.02 0 0 Z " fill="#8db0f7" transform="translate(604,140)"/>
<path d="M0 0 C3.3 0 6.6 0 10 0 C10 0.99 10 1.98 10 3 C6.7 3 3.4 3 0 3 C0 2.01 0 1.02 0 0 Z " fill="#8db0f7" transform="translate(1071,140)"/>
<path d="M0 0 C0.33 0.99 0.66 1.98 1 3 C-2.47 4.16 -5.36 4.07 -9 4 C-9 3.01 -9 2.02 -9 1 C-5.8 -0.07 -3.34 -0.07 0 0 Z " fill="#8db0f7" transform="translate(1048,141)"/>
<path d="M0 0 C3.3 0 6.6 0 10 0 C9.67 0.99 9.34 1.98 9 3 C6.03 3 3.06 3 0 3 C0 2.01 0 1.02 0 0 Z " fill="#8db0f7" transform="translate(1055,141)"/>
<path d="M0 0 C7.75 -0.12 7.75 -0.12 10 1 C9.67 1.99 9.34 2.98 9 4 C6.03 3.67 3.06 3.34 0 3 C0 2.01 0 1.02 0 0 Z " fill="#8db0f7" transform="translate(621,142)"/>
<path d="M0 0 C3.3 0 6.6 0 10 0 C10 0.99 10 1.98 10 3 C6.7 3 3.4 3 0 3 C0 2.01 0 1.02 0 0 Z " fill="#8db0f7" transform="translate(1023,142)"/>
<path d="M0 0 C1.53 0.09 3.05 0.25 4.56 0.44 C4.98 0.49 4.98 0.49 7.07 0.75 C7.39 0.79 7.39 0.79 9 1 C9 1.99 9 2.98 9 4 C6.03 4 3.06 4 0 4 C-0.33 3.01 -0.66 2.02 -1 1 C-0.67 0.67 -0.34 0.34 0 0 Z " fill="#8db0f7" transform="translate(637,143)"/>
<path d="M0 0 C2.97 0 5.94 0 9 0 C9 0.99 9 1.98 9 3 C7.51 3.16 7.51 3.16 0 4 C0 2.68 0 1.36 0 0 Z " fill="#8db0f7" transform="translate(991,143)"/>
<path d="M0 0 C3.63 0 7.26 0 11 0 C10.67 0.99 10.34 1.98 10 3 C7.03 3 4.06 3 1 3 C0.67 2.01 0.34 1.02 0 0 Z " fill="#8db0f7" transform="translate(1006,143)"/>
<path d="M0 0 C0 1.32 0 2.64 0 4 C-2.64 4 -5.28 4 -8 4 C-8.33 3.01 -8.66 2.02 -9 1 C-5.93 0.09 -3.2 -0.09 0 0 Z " fill="#8db0f7" transform="translate(967,144)"/>
<path d="M0 0 C3.3 0 6.6 0 10 0 C10 0.99 10 1.98 10 3 C6.7 3 3.4 3 0 3 C0 2.01 0 1.02 0 0 Z " fill="#8db0f7" transform="translate(974,144)"/>
<path d="M0 0 C2.97 0 5.94 0 9 0 C9 0.99 9 1.98 9 3 C6.03 3 3.06 3 0 3 C0 2.01 0 1.02 0 0 Z " fill="#8db0f7" transform="translate(653,145)"/>
<path d="M0 0 C0 1.32 0 2.64 0 4 C-2.64 4 -5.28 4 -8 4 C-8.33 3.01 -8.66 2.02 -9 1 C-5.93 0.09 -3.2 -0.09 0 0 Z " fill="#8db0f7" transform="translate(935,145)"/>
<path d="M0 0 C3.3 0 6.6 0 10 0 C10 0.99 10 1.98 10 3 C6.7 3 3.4 3 0 3 C0 2.01 0 1.02 0 0 Z " fill="#8db0f7" transform="translate(942,145)"/>
<path d="M0 0 C2.97 0 5.94 0 9 0 C9.33 0.99 9.66 1.98 10 3 C6.7 3 3.4 3 0 3 C0 2.01 0 1.02 0 0 Z " fill="#8db0f7" transform="translate(669,146)"/>
<path d="M0 0 C1.69 0.09 3.38 0.25 5.06 0.44 C5.52 0.49 5.52 0.49 7.85 0.75 C8.56 0.83 9.27 0.91 10 1 C10 1.99 10 2.98 10 4 C8.54 4.08 7.08 4.14 5.62 4.19 C4.81 4.22 4 4.26 3.16 4.29 C2.45 4.2 1.74 4.1 1 4 C0.34 3.01 -0.32 2.02 -1 1 C-0.67 0.67 -0.34 0.34 0 0 Z " fill="#8db0f7" transform="translate(685,146)"/>
<path d="M0 0 C2.64 0 5.28 0 8 0 C8.33 0.99 8.66 1.98 9 3 C7.51 3.16 7.51 3.16 0 4 C0 2.68 0 1.36 0 0 Z " fill="#8db0f7" transform="translate(895,146)"/>
<path d="M0 0 C3.3 0 6.6 0 10 0 C10 0.99 10 1.98 10 3 C6.7 3 3.4 3 0 3 C0 2.01 0 1.02 0 0 Z " fill="#8db0f7" transform="translate(910,146)"/>
<path d="M0 0 C2.97 0 5.94 0 9 0 C9.33 0.99 9.66 1.98 10 3 C6.7 3 3.4 3 0 3 C0 2.01 0 1.02 0 0 Z " fill="#8db0f7" transform="translate(701,147)"/>
<path d="M0 0 C2.97 0.33 5.94 0.66 9 1 C8.67 1.99 8.34 2.98 8 4 C5.36 4 2.72 4 0 4 C0 2.68 0 1.36 0 0 Z " fill="#8db0f7" transform="translate(718,147)"/>
<path d="M0 0 C2.64 0 5.28 0 8 0 C8.33 0.99 8.66 1.98 9 3 C6.04 4.48 3.26 4.06 0 4 C0 2.68 0 1.36 0 0 Z " fill="#8db0f7" transform="translate(847,147)"/>
<path d="M0 0 C3.3 0 6.6 0 10 0 C10 0.99 10 1.98 10 3 C6.7 3 3.4 3 0 3 C0 2.01 0 1.02 0 0 Z " fill="#8db0f7" transform="translate(862,147)"/>
<path d="M0 0 C3.3 0 6.6 0 10 0 C10 0.99 10 1.98 10 3 C6.7 3 3.4 3 0 3 C0 2.01 0 1.02 0 0 Z " fill="#8db0f7" transform="translate(878,147)"/>
<path d="M0 0 C3.3 0 6.6 0 10 0 C10 0.99 10 1.98 10 3 C6.7 3 3.4 3 0 3 C0 2.01 0 1.02 0 0 Z " fill="#8db0f7" transform="translate(733,148)"/>
<path d="M0 0 C3.3 0 6.6 0 10 0 C10 0.99 10 1.98 10 3 C6.7 3 3.4 3 0 3 C0 2.01 0 1.02 0 0 Z " fill="#8db0f7" transform="translate(749,148)"/>
<path d="M0 0 C3.3 0 6.6 0 10 0 C10 0.99 10 1.98 10 3 C6.7 3 3.4 3 0 3 C0 2.01 0 1.02 0 0 Z " fill="#8db0f7" transform="translate(765,148)"/>
<path d="M0 0 C3.3 0 6.6 0 10 0 C10.33 0.99 10.66 1.98 11 3 C7.37 3 3.74 3 0 3 C0 2.01 0 1.02 0 0 Z " fill="#8db0f7" transform="translate(781,148)"/>
<path d="M0 0 C3.3 0 6.6 0 10 0 C10 0.99 10 1.98 10 3 C6.7 3 3.4 3 0 3 C0 2.01 0 1.02 0 0 Z " fill="#8db0f7" transform="translate(797,148)"/>
<path d="M0 0 C3.63 0 7.26 0 11 0 C10.67 0.99 10.34 1.98 10 3 C7.03 3 4.06 3 1 3 C0.67 2.01 0.34 1.02 0 0 Z " fill="#8db0f7" transform="translate(813,148)"/>
<path d="M0 0 C3.63 0 7.26 0 11 0 C10.67 0.99 10.34 1.98 10 3 C7.03 3 4.06 3 1 3 C0.67 2.01 0.34 1.02 0 0 Z " fill="#8db0f7" transform="translate(829,148)"/>
</svg>
