<svg width="101" height="100" viewBox="0 0 101 100" fill="none" xmlns="http://www.w3.org/2000/svg">
<circle cx="50.5" cy="50" r="49" stroke="url(#paint0_linear_322_382)" stroke-width="2"/>
<path d="M69.5078 29C71.0099 29 72.1085 29.4885 72.9707 30.4912L73.1396 30.6982V30.6992C73.6826 31.3977 73.9697 32.2379 73.9697 33.2354V33.2373L73.9727 38.207V40.1816L73.959 45.0303C73.9485 47.8694 73.9377 50.7887 73.9619 53.7002L73.999 56.6064C74.0199 57.8227 73.6148 58.927 72.876 59.7617L72.7246 59.9248C71.9007 60.7627 70.7707 61.2333 69.5234 61.2334C69.4716 61.2334 69.4329 61.2333 69.3965 61.2324H69.3975C68.0841 61.1995 66.6774 61.1846 64.9727 61.1846L61.5986 61.1973C60.4942 61.2031 59.3559 61.21 58.2363 61.21H56.5498L56.7832 62.4014L56.9297 63.1553L57.3223 65.1533L57.5957 66.5117V66.5127C57.6858 66.9569 57.7774 67.4063 57.8672 67.8564L58.1289 69.2051L58.1299 69.208C58.1538 69.3342 58.2235 69.7292 58.5547 70.0215C58.9067 70.332 59.3246 70.332 59.4648 70.332H59.4893C60.1909 70.3239 60.9217 70.3203 61.6611 70.3203L63.71 70.3301H63.7119C63.7783 70.3307 63.8226 70.3403 63.8486 70.3486V70.3516C63.8478 70.3555 63.8455 70.3589 63.8447 70.3623L63.8428 70.3633C63.7297 70.378 63.6002 70.3789 63.4199 70.3789V71.1709L63.3994 71.1729V70.3789C61.3567 70.3789 59.3401 70.3796 57.3105 70.3799H44.8486C42.7515 70.3796 40.6542 70.3789 38.5566 70.3789C38.4527 70.3789 38.3709 70.3783 38.3018 70.376L38.124 70.3623L38.1123 70.3594L38.1074 70.3555V70.3545C38.1075 70.3523 38.1082 70.3504 38.1084 70.3486C38.2043 70.3396 38.3021 70.3332 38.4023 70.3301L38.7422 70.3262H39.2021C39.7382 70.325 40.273 70.3242 40.8076 70.3242L42.5059 70.3271H42.5381C42.5892 70.3271 42.6813 70.3276 42.7783 70.3164C42.8763 70.3051 43.047 70.2759 43.2285 70.1768C43.564 69.9935 43.7088 69.7071 43.7744 69.5039L43.8184 69.3359V69.334L44.8799 63.9688V63.9678L45.1904 62.4053L45.4287 61.21H43.7666L40.374 61.2021H40.373C39.2419 61.1986 38.1078 61.1943 36.9746 61.1943C35.2187 61.1943 33.7729 61.2037 32.4277 61.2236L32.4141 61.2246H32.3896C32.3813 61.2247 32.3713 61.2256 32.3564 61.2256C30.184 61.2254 28.324 59.6259 28.0605 57.708L28 57.2656V32.6416C28.1682 31.9304 28.4178 31.1775 28.9297 30.5625L29.04 30.4365C29.8218 29.5895 30.6683 29.1515 31.6592 29.042L31.8594 29.0244H31.8604C32.0261 29.0134 32.2124 29.0078 32.4541 29.0078H49.9209C55.6768 29.0078 62.5058 29.007 69.5078 29ZM45.3428 62.0303L43.9316 69.0918L43.6924 70.2881H58.2803L58.041 69.0918L56.6299 62.0303L56.4688 61.2266H45.5039L45.3428 62.0303ZM28.1201 54.8711C28.1201 55.1022 28.1184 55.3262 28.1172 55.5625C28.1137 56.0791 28.11 56.5906 28.1201 57.1055L28.1348 57.6221C28.1511 58.0238 28.2952 58.3976 28.417 58.6562L28.5254 58.873L28.5264 58.874C28.9091 59.6014 29.44 60.1845 30.1377 60.5771C30.7427 60.9176 31.4244 61.0878 32.1582 61.125L32.4756 61.1328H32.4766C39.8074 61.127 47.1492 61.126 53.3652 61.126H69.4932C69.5768 61.126 69.6752 61.1254 69.7812 61.123L70.1162 61.1084H70.1172C71.1501 61.0314 72.0463 60.5968 72.7568 59.8545L72.8965 59.7021C73.8713 58.5896 73.93 57.3263 73.9062 56.3076L73.8936 55.8867C73.8828 55.5344 73.8725 55.2199 73.8857 54.9141L73.9316 53.8711H28.1201V54.8711ZM55.5566 29.0605L32.4883 29.0664H32.4863C32.1139 29.0674 31.7634 29.096 31.4316 29.1592L31.1064 29.2344H31.1045C30.1741 29.4913 29.3959 29.9977 28.8584 30.749C28.3918 31.4013 28.1455 32.1825 28.0908 33.0322L28.0791 33.4004L28.0781 45.9746V48.7871L28.0869 49.7422C28.0951 50.7506 28.1061 52.2289 28.1084 52.7637L28.1133 53.7598H73.8154L73.874 52.8223L73.873 52.8213L73.8779 52.793L73.8799 52.7578C73.8845 52.6721 73.8936 52.5299 73.8936 52.3965V33.4658C73.8928 32.2023 73.5131 31.0737 72.7021 30.2598C71.8907 29.4453 70.7642 29.0635 69.5029 29.0635H69.5039C64.8547 29.0623 60.2049 29.0605 55.5566 29.0605Z" fill="url(#paint1_linear_322_382)" stroke="url(#paint2_linear_322_382)" stroke-width="2"/>
<mask id="path-3-inside-1_322_382" fill="white">
<path d="M49.344 44.7348L50.076 47.9153C50.1823 48.3765 50.3376 48.7104 50.7579 48.8377C50.8525 48.8669 50.9482 48.8821 51.0405 48.8821C51.3254 48.8821 51.5904 48.7431 51.8729 48.4442C52.1929 48.1056 52.528 47.7682 52.8514 47.4413C52.9133 47.3782 52.9763 47.3152 53.0394 47.251C53.1012 47.1879 53.1643 47.1249 53.2262 47.0618L53.3091 46.9766L53.392 47.0606C53.5566 47.2276 53.7166 47.3911 53.8753 47.5534C54.2992 47.9865 54.6833 48.3765 55.0791 48.77C55.3839 49.0724 55.6466 49.2137 55.9046 49.2137C56.1626 49.2137 56.4183 49.0759 56.7184 48.7805C57.2391 48.2668 57.7832 47.725 58.3331 47.1681C58.9169 46.5773 58.9146 46.1172 58.3261 45.5265C57.9046 45.105 57.4913 44.6986 57.1072 44.3238C57.0278 44.2456 56.9484 44.1674 56.8678 44.0892C56.7826 44.0063 56.6974 43.9222 56.611 43.837L56.5257 43.7529L56.611 43.67C56.7079 43.5754 56.8048 43.482 56.9005 43.3898L57.0325 43.2625L57.057 43.2392C57.4236 42.8842 57.7704 42.548 58.1078 42.1942C58.3962 41.893 58.5071 41.5368 58.4114 41.2169C58.3168 40.8982 58.0307 40.6612 57.6256 40.5666C55.1387 39.984 52.4567 39.3663 49.4269 38.6786C49.3125 38.6529 49.2004 38.6389 49.0941 38.6389C48.7929 38.6389 48.5383 38.7498 48.3784 38.9495C48.1951 39.1795 48.1414 39.5158 48.2278 39.8976C48.4951 41.0651 48.7637 42.2327 49.0322 43.4003L49.3405 44.736L49.344 44.7348ZM50.4975 40.8024L55.5029 41.9548L55.7084 42.0027L55.559 42.1522L55.4049 42.3063L55.113 42.6005C55.0056 42.7079 54.9016 42.8142 54.7966 42.9193C54.1941 43.5322 54.1953 43.9864 54.8012 44.5924C55.2064 44.9987 55.6255 45.4085 55.9945 45.7705L56.1428 45.9153C56.242 46.0133 56.3424 46.1114 56.4417 46.2095L56.5269 46.2935L56.4405 46.3764L55.9291 46.8645L55.8462 46.9439L55.7657 46.8633L55.3371 46.4337C54.8701 45.9643 54.4918 45.5848 54.1451 45.2404C53.8368 44.9345 53.5718 44.792 53.3114 44.792C53.051 44.792 52.7837 44.9357 52.4719 45.2427C52.2863 45.426 52.1006 45.614 51.9045 45.8125L51.8776 45.8394L51.7142 46.004L51.5647 46.1534L51.5168 45.9479L50.3574 40.9414L50.3154 40.7592L50.4975 40.8013V40.8024Z"/>
</mask>
<path d="M49.344 44.7348L50.076 47.9153C50.1823 48.3765 50.3376 48.7104 50.7579 48.8377C50.8525 48.8669 50.9482 48.8821 51.0405 48.8821C51.3254 48.8821 51.5904 48.7431 51.8729 48.4442C52.1929 48.1056 52.528 47.7682 52.8514 47.4413C52.9133 47.3782 52.9763 47.3152 53.0394 47.251C53.1012 47.1879 53.1643 47.1249 53.2262 47.0618L53.3091 46.9766L53.392 47.0606C53.5566 47.2276 53.7166 47.3911 53.8753 47.5534C54.2992 47.9865 54.6833 48.3765 55.0791 48.77C55.3839 49.0724 55.6466 49.2137 55.9046 49.2137C56.1626 49.2137 56.4183 49.0759 56.7184 48.7805C57.2391 48.2668 57.7832 47.725 58.3331 47.1681C58.9169 46.5773 58.9146 46.1172 58.3261 45.5265C57.9046 45.105 57.4913 44.6986 57.1072 44.3238C57.0278 44.2456 56.9484 44.1674 56.8678 44.0892C56.7826 44.0063 56.6974 43.9222 56.611 43.837L56.5257 43.7529L56.611 43.67C56.7079 43.5754 56.8048 43.482 56.9005 43.3898L57.0325 43.2625L57.057 43.2392C57.4236 42.8842 57.7704 42.548 58.1078 42.1942C58.3962 41.893 58.5071 41.5368 58.4114 41.2169C58.3168 40.8982 58.0307 40.6612 57.6256 40.5666C55.1387 39.984 52.4567 39.3663 49.4269 38.6786C49.3125 38.6529 49.2004 38.6389 49.0941 38.6389C48.7929 38.6389 48.5383 38.7498 48.3784 38.9495C48.1951 39.1795 48.1414 39.5158 48.2278 39.8976C48.4951 41.0651 48.7637 42.2327 49.0322 43.4003L49.3405 44.736L49.344 44.7348ZM50.4975 40.8024L55.5029 41.9548L55.7084 42.0027L55.559 42.1522L55.4049 42.3063L55.113 42.6005C55.0056 42.7079 54.9016 42.8142 54.7966 42.9193C54.1941 43.5322 54.1953 43.9864 54.8012 44.5924C55.2064 44.9987 55.6255 45.4085 55.9945 45.7705L56.1428 45.9153C56.242 46.0133 56.3424 46.1114 56.4417 46.2095L56.5269 46.2935L56.4405 46.3764L55.9291 46.8645L55.8462 46.9439L55.7657 46.8633L55.3371 46.4337C54.8701 45.9643 54.4918 45.5848 54.1451 45.2404C53.8368 44.9345 53.5718 44.792 53.3114 44.792C53.051 44.792 52.7837 44.9357 52.4719 45.2427C52.2863 45.426 52.1006 45.614 51.9045 45.8125L51.8776 45.8394L51.7142 46.004L51.5647 46.1534L51.5168 45.9479L50.3574 40.9414L50.3154 40.7592L50.4975 40.8013V40.8024Z" fill="url(#paint3_linear_322_382)"/>
<path d="M49.344 44.7348L51.293 44.2862L50.7994 42.1419L48.7118 42.8374L49.344 44.7348ZM50.076 47.9153L48.127 48.3639L48.1271 48.3643L50.076 47.9153ZM50.7579 48.8377L51.3478 46.9266L51.3375 46.9235L50.7579 48.8377ZM51.8729 48.4442L53.3263 49.8181L53.3267 49.8178L51.8729 48.4442ZM52.8514 47.4413L54.2732 48.8479L54.2787 48.8422L52.8514 47.4413ZM53.0394 47.251L54.4665 48.6521L54.4667 48.6519L53.0394 47.251ZM53.2262 47.0618L54.6536 48.4628L54.6599 48.4562L53.2262 47.0618ZM53.3091 46.9766L54.7331 45.5723L53.2992 44.1182L51.8753 45.5821L53.3091 46.9766ZM53.392 47.0606L54.8161 45.6564L54.816 45.6564L53.392 47.0606ZM53.8753 47.5534L52.4458 48.9521L52.4458 48.9521L53.8753 47.5534ZM55.0791 48.77L53.6691 50.1884L53.6704 50.1896L55.0791 48.77ZM56.7184 48.7805L58.1215 50.2058L58.123 50.2042L56.7184 48.7805ZM58.3331 47.1681L56.9105 45.7623L56.91 45.7628L58.3331 47.1681ZM58.3261 45.5265L59.7432 44.115L59.7404 44.1122L58.3261 45.5265ZM57.1072 44.3238L55.7035 45.7485L55.7105 45.7554L57.1072 44.3238ZM56.8678 44.0892L55.4734 45.5229L55.4746 45.524L56.8678 44.0892ZM56.611 43.837L58.0155 42.4132L58.0154 42.413L56.611 43.837ZM56.5257 43.7529L55.1313 42.3192L53.6675 43.7429L55.1213 45.1768L56.5257 43.7529ZM56.611 43.67L58.0054 45.1037L58.0078 45.1014L56.611 43.67ZM56.9005 43.3898L58.2882 44.8301L58.289 44.8293L56.9005 43.3898ZM57.0325 43.2625L55.6531 41.8143L55.644 41.8231L57.0325 43.2625ZM57.057 43.2392L58.4364 44.6874L58.4423 44.6817L58.4481 44.6761L57.057 43.2392ZM58.1078 42.1942L56.6631 40.8111L56.6606 40.8138L58.1078 42.1942ZM58.4114 41.2169L56.494 41.7858L56.4953 41.7903L58.4114 41.2169ZM57.6256 40.5666L57.1694 42.5139L57.171 42.5142L57.6256 40.5666ZM49.4269 38.6786L49.8696 36.7282L49.865 36.7272L49.4269 38.6786ZM48.3784 38.9495L46.8175 37.699L46.8143 37.703L48.3784 38.9495ZM48.2278 39.8976L46.2771 40.339L46.2782 40.344L48.2278 39.8976ZM49.0322 43.4003L47.0831 43.8486L47.0835 43.85L49.0322 43.4003ZM49.3405 44.736L47.3917 45.1857L47.8862 47.3286L49.9726 46.6335L49.3405 44.736ZM50.4975 40.8024H48.4975V42.3943L50.0488 42.7514L50.4975 40.8024ZM55.5029 41.9548L55.9567 40.007L55.9517 40.0058L55.5029 41.9548ZM55.7084 42.0027L57.1227 43.4169L59.668 40.8716L56.1622 40.0549L55.7084 42.0027ZM55.559 42.1522L54.1448 40.7379L54.1448 40.738L55.559 42.1522ZM55.4049 42.3063L53.9906 40.8921L53.985 40.8977L55.4049 42.3063ZM55.113 42.6005L56.5272 44.0147L56.5328 44.0091L55.113 42.6005ZM54.7966 42.9193L53.3823 41.505L53.3762 41.5112L53.3702 41.5173L54.7966 42.9193ZM54.8012 44.5924L56.2175 43.1802L56.2154 43.1782L54.8012 44.5924ZM55.9945 45.7705L54.5939 47.1982L54.5973 47.2015L55.9945 45.7705ZM56.1428 45.9153L57.5486 44.4927L57.54 44.4842L56.1428 45.9153ZM56.4417 46.2095L55.0359 47.632L55.0372 47.6334L56.4417 46.2095ZM56.5269 46.2935L57.9116 47.7367L59.3951 46.3133L57.9314 44.8696L56.5269 46.2935ZM56.4405 46.3764L57.8213 47.8233L57.8252 47.8196L56.4405 46.3764ZM55.9291 46.8645L54.5483 45.4176L54.5457 45.4201L55.9291 46.8645ZM55.8462 46.9439L54.432 48.3581L55.816 49.7421L57.2296 48.3883L55.8462 46.9439ZM55.7657 46.8633L54.3495 48.2756L54.3514 48.2775L55.7657 46.8633ZM55.3371 46.4337L53.9194 47.8443L53.921 47.8459L55.3371 46.4337ZM54.1451 45.2404L55.5545 43.8214L55.5539 43.8208L54.1451 45.2404ZM52.4719 45.2427L51.0684 43.8179L51.0667 43.8196L52.4719 45.2427ZM51.9045 45.8125L53.3187 47.2268L53.327 47.2183L51.9045 45.8125ZM51.8776 45.8394L50.4634 44.4251L50.4584 44.4302L51.8776 45.8394ZM51.7142 46.004L53.1284 47.4182L53.1334 47.4132L51.7142 46.004ZM51.5647 46.1534L49.6169 46.6072L50.4336 50.113L52.9789 47.5677L51.5647 46.1534ZM51.5168 45.9479L49.5684 46.3992L49.569 46.4017L51.5168 45.9479ZM50.3574 40.9414L48.4087 41.3911L48.409 41.3926L50.3574 40.9414ZM50.3154 40.7592L50.7651 38.8105L47.6471 38.0909L48.3666 41.209L50.3154 40.7592ZM50.4975 40.8013H52.4975V39.2102L50.9473 38.8525L50.4975 40.8013ZM49.344 44.7348L47.3949 45.1835L48.127 48.3639L50.076 47.9153L52.0251 47.4667L51.293 44.2862L49.344 44.7348ZM50.076 47.9153L48.1271 48.3643C48.196 48.6634 48.3261 49.1475 48.6349 49.6108C48.99 50.1438 49.5127 50.5503 50.1783 50.7519L50.7579 48.8377L51.3375 46.9235C51.4369 46.9536 51.5616 47.0093 51.6878 47.1039C51.8138 47.1982 51.9039 47.3031 51.9635 47.3927C52.063 47.5419 52.0623 47.6284 52.025 47.4663L50.076 47.9153ZM50.7579 48.8377L50.1681 50.7487C50.4367 50.8317 50.7313 50.8821 51.0405 50.8821V48.8821V46.8821C51.1652 46.8821 51.2682 46.9021 51.3477 46.9267L50.7579 48.8377ZM51.0405 48.8821V50.8821C52.0789 50.8821 52.8334 50.3396 53.3263 49.8181L51.8729 48.4442L50.4196 47.0703C50.3806 47.1115 50.4149 47.0638 50.5272 47.0048C50.6572 46.9365 50.8372 46.8821 51.0405 46.8821V48.8821ZM51.8729 48.4442L53.3267 49.8178C53.6274 49.4995 53.9442 49.1805 54.2732 48.8479L52.8514 47.4413L51.4296 46.0347C51.1118 46.3559 50.7584 46.7117 50.4192 47.0707L51.8729 48.4442ZM52.8514 47.4413L54.2787 48.8422C54.3058 48.8146 54.3338 48.7864 54.3657 48.7542C54.3965 48.7231 54.4312 48.688 54.4665 48.6521L53.0394 47.251L51.6122 45.8498C51.5844 45.8781 51.5561 45.9067 51.5242 45.9389C51.4933 45.97 51.4588 46.0049 51.424 46.0403L52.8514 47.4413ZM53.0394 47.251L54.4667 48.6519C54.4938 48.6243 54.5217 48.5961 54.5535 48.564C54.5842 48.5331 54.6188 48.4982 54.6535 48.4627L53.2262 47.0618L51.7988 45.6609C51.7717 45.6885 51.7438 45.7167 51.712 45.7488C51.6813 45.7797 51.6468 45.8146 51.612 45.85L53.0394 47.251ZM53.2262 47.0618L54.6599 48.4562L54.7428 48.371L53.3091 46.9766L51.8753 45.5821L51.7924 45.6674L53.2262 47.0618ZM53.3091 46.9766L51.885 48.3809L51.9679 48.4649L53.392 47.0606L54.816 45.6564L54.7331 45.5723L53.3091 46.9766ZM53.392 47.0606L51.9678 48.4649C52.1293 48.6287 52.2867 48.7895 52.4458 48.9521L53.8753 47.5534L55.3049 46.1547C55.1464 45.9927 54.9838 45.8265 54.8161 45.6564L53.392 47.0606ZM53.8753 47.5534L52.4458 48.9521C52.8721 49.3878 53.2637 49.7853 53.6691 50.1884L55.0791 48.77L56.4891 47.3516C56.1029 46.9677 55.7262 46.5853 55.3049 46.1546L53.8753 47.5534ZM55.0791 48.77L53.6704 50.1896C54.1143 50.6301 54.8605 51.2137 55.9046 51.2137V49.2137V47.2137C56.16 47.2137 56.3528 47.288 56.4563 47.3436C56.544 47.3907 56.5554 47.4173 56.4879 47.3503L55.0791 48.77ZM55.9046 49.2137V51.2137C56.9436 51.2137 57.6813 50.639 58.1215 50.2057L56.7184 48.7805L55.3153 47.3552C55.248 47.4215 55.2625 47.3923 55.3539 47.3435C55.4635 47.285 55.6561 47.2137 55.9046 47.2137V49.2137ZM56.7184 48.7805L58.123 50.2042C58.6482 49.6861 59.1987 49.138 59.7563 48.5733L58.3331 47.1681L56.91 45.7628C56.3677 46.312 55.8301 46.8474 55.3138 47.3567L56.7184 48.7805ZM58.3331 47.1681L59.7558 48.5738C60.1801 48.1444 60.7739 47.3945 60.7692 46.3384C60.7645 45.2857 60.1674 44.541 59.7432 44.115L58.3261 45.5265L56.9091 46.9379C57.0733 47.1027 56.7716 46.8834 56.7693 46.3561C56.7669 45.8254 57.07 45.6009 56.9105 45.7623L58.3331 47.1681ZM58.3261 45.5265L59.7404 44.1122C59.3112 43.6831 58.8917 43.2707 58.5039 42.8923L57.1072 44.3238L55.7105 45.7554C56.0909 46.1265 56.4981 46.5268 56.9119 46.9407L58.3261 45.5265ZM57.1072 44.3238L58.5109 42.8992C58.4323 42.8218 58.3478 42.7385 58.2611 42.6543L56.8678 44.0892L55.4746 45.524C55.549 45.5963 55.6233 45.6694 55.7035 45.7485L57.1072 44.3238ZM56.8678 44.0892L58.2623 42.6554C58.1829 42.5783 58.1027 42.4991 58.0155 42.4132L56.611 43.837L55.2064 45.2608C55.2921 45.3453 55.3823 45.4343 55.4734 45.5229L56.8678 44.0892ZM56.611 43.837L58.0154 42.413L57.9302 42.329L56.5257 43.7529L55.1213 45.1768L55.2066 45.2609L56.611 43.837ZM56.5257 43.7529L57.9202 45.1866L58.0054 45.1037L56.611 43.67L55.2165 42.2363L55.1313 42.3192L56.5257 43.7529ZM56.611 43.67L58.0078 45.1014C58.0995 45.0119 58.192 44.9228 58.2882 44.8301L56.9005 43.3898L55.5129 41.9495C55.4176 42.0413 55.3163 42.1389 55.2141 42.2386L56.611 43.67ZM56.9005 43.3898L58.289 44.8293L58.421 44.702L57.0325 43.2625L55.644 41.8231L55.512 41.9503L56.9005 43.3898ZM57.0325 43.2625L58.4119 44.7107L58.4364 44.6874L57.057 43.2392L55.6776 41.791L55.6531 41.8143L57.0325 43.2625ZM57.057 43.2392L58.4481 44.6761C58.811 44.3248 59.1859 43.9616 59.5551 43.5746L58.1078 42.1942L56.6606 40.8138C56.3549 41.1343 56.0363 41.4436 55.6658 41.8023L57.057 43.2392ZM58.1078 42.1942L59.5525 43.5773C60.1923 42.909 60.6837 41.8341 60.3274 40.6435L58.4114 41.2169L56.4953 41.7903C56.3305 41.2396 56.6001 40.8769 56.6631 40.8111L58.1078 42.1942ZM58.4114 41.2169L60.3288 40.648C59.9765 39.4607 58.9815 38.8293 58.0802 38.6189L57.6256 40.5666L57.171 42.5142C57.08 42.493 56.6571 42.3357 56.494 41.7858L58.4114 41.2169ZM57.6256 40.5666L58.0818 38.6193C55.5896 38.0354 52.9031 37.4167 49.8696 36.7282L49.4269 38.6786L48.9842 40.629C52.0104 41.3159 54.6878 41.9325 57.1694 42.5139L57.6256 40.5666ZM49.4269 38.6786L49.865 36.7272C49.6333 36.6752 49.3727 36.6389 49.0941 36.6389V38.6389V40.6389C49.028 40.6389 48.9916 40.6307 48.9888 40.63L49.4269 38.6786ZM49.0941 38.6389V36.6389C48.3022 36.6389 47.4243 36.9416 46.8175 37.699L48.3784 38.9495L49.9392 40.2C49.6524 40.558 49.2836 40.6389 49.0941 40.6389V38.6389ZM48.3784 38.9495L46.8143 37.703C46.1372 38.5527 46.1038 39.573 46.2771 40.339L48.2278 39.8976L50.1784 39.4561C50.179 39.4585 50.253 39.8063 49.9425 40.196L48.3784 38.9495ZM48.2278 39.8976L46.2782 40.344C46.5459 41.5127 46.8146 42.6812 47.0831 43.8486L49.0322 43.4003L50.9813 42.952C50.7128 41.7843 50.4444 40.6176 50.1773 39.4511L48.2278 39.8976ZM49.0322 43.4003L47.0835 43.85L47.3917 45.1857L49.3405 44.736L51.2893 44.2863L50.981 42.9506L49.0322 43.4003ZM49.3405 44.736L49.9726 46.6335L49.9761 46.6323L49.344 44.7348L48.7118 42.8374L48.7083 42.8385L49.3405 44.736ZM50.4975 40.8024L50.0488 42.7514L55.0542 43.9038L55.5029 41.9548L55.9517 40.0058L50.9463 38.8534L50.4975 40.8024ZM55.5029 41.9548L55.0492 43.9027L55.2547 43.9505L55.7084 42.0027L56.1622 40.0549L55.9567 40.007L55.5029 41.9548ZM55.7084 42.0027L54.2942 40.5885L54.1448 40.7379L55.559 42.1522L56.9732 43.5664L57.1227 43.4169L55.7084 42.0027ZM55.559 42.1522L54.1448 40.738L53.9906 40.8921L55.4049 42.3063L56.8191 43.7205L56.9732 43.5664L55.559 42.1522ZM55.4049 42.3063L53.985 40.8977L53.6931 41.1919L55.113 42.6005L56.5328 44.0091L56.8247 43.7148L55.4049 42.3063ZM55.113 42.6005L53.6988 41.1863C53.6405 41.2445 53.5839 41.3018 53.5319 41.3544C53.4787 41.4082 53.4303 41.4571 53.3823 41.505L54.7966 42.9193L56.2108 44.3335C56.2679 44.2764 56.324 44.2196 56.3759 44.1671C56.429 44.1134 56.478 44.0639 56.5272 44.0147L55.113 42.6005ZM54.7966 42.9193L53.3702 41.5173C52.9538 41.941 52.3428 42.6958 52.3457 43.7639C52.3487 44.8344 52.9661 45.5856 53.387 46.0066L54.8012 44.5924L56.2154 43.1782C56.1426 43.1054 56.1653 43.1122 56.2106 43.1942C56.2647 43.292 56.345 43.4876 56.3457 43.753C56.3464 44.018 56.2674 44.2129 56.2151 44.3092C56.1712 44.3899 56.1498 44.3956 56.2229 44.3212L54.7966 42.9193ZM54.8012 44.5924L53.385 46.0046C53.7999 46.4207 54.2288 46.84 54.5939 47.1982L55.9945 45.7705L57.3951 44.3428C57.0223 43.9771 56.6129 43.5768 56.2175 43.1802L54.8012 44.5924ZM55.9945 45.7705L54.5973 47.2015L54.7456 47.3463L56.1428 45.9153L57.54 44.4842L57.3917 44.3395L55.9945 45.7705ZM56.1428 45.9153L54.737 47.3378C54.789 47.3893 54.841 47.4404 54.8906 47.4891C54.9409 47.5384 54.9887 47.5854 55.0359 47.632L56.4417 46.2095L57.8475 44.7869C57.7954 44.7355 57.7434 44.6844 57.6939 44.6357C57.6436 44.5863 57.5958 44.5393 57.5486 44.4927L56.1428 45.9153ZM56.4417 46.2095L55.0372 47.6334L55.1225 47.7175L56.5269 46.2935L57.9314 44.8696L57.8461 44.7856L56.4417 46.2095ZM56.5269 46.2935L55.1422 44.8504L55.0558 44.9333L56.4405 46.3764L57.8252 47.8196L57.9116 47.7367L56.5269 46.2935ZM56.4405 46.3764L55.0597 44.9296L54.5483 45.4176L55.9291 46.8645L57.3099 48.3114L57.8213 47.8233L56.4405 46.3764ZM55.9291 46.8645L54.5457 45.4201L54.4628 45.4995L55.8462 46.9439L57.2296 48.3883L57.3125 48.3089L55.9291 46.8645ZM55.8462 46.9439L57.2604 45.5297L57.1799 45.4491L55.7657 46.8633L54.3514 48.2775L54.432 48.3581L55.8462 46.9439ZM55.7657 46.8633L57.1818 45.451L56.7533 45.0214L55.3371 46.4337L53.921 47.8459L54.3495 48.2756L55.7657 46.8633ZM55.3371 46.4337L56.7549 45.023C56.2878 44.5535 55.9058 44.1704 55.5545 43.8214L54.1451 45.2404L52.7356 46.6594C53.0778 46.9993 53.4525 47.3751 53.9194 47.8443L55.3371 46.4337ZM54.1451 45.2404L55.5539 43.8208C55.1067 43.3771 54.3581 42.792 53.3114 42.792V44.792V46.792C53.0572 46.792 52.8655 46.7181 52.7631 46.663C52.6767 46.6165 52.6668 46.5911 52.7362 46.66L54.1451 45.2404ZM53.3114 44.792V42.792C52.265 42.792 51.5146 43.3784 51.0684 43.8179L52.4719 45.2427L53.8754 46.6676C53.9473 46.5967 53.9402 46.6197 53.857 46.6643C53.7586 46.7171 53.5678 46.792 53.3114 46.792V44.792ZM52.4719 45.2427L51.0667 43.8196C50.8707 44.0132 50.676 44.2103 50.4819 44.4067L51.9045 45.8125L53.327 47.2183C53.5253 47.0177 53.7019 46.8389 53.8772 46.6659L52.4719 45.2427ZM51.9045 45.8125L50.4903 44.3982L50.4635 44.4251L51.8776 45.8394L53.2918 47.2536L53.3186 47.2268L51.9045 45.8125ZM51.8776 45.8394L50.4584 44.4302L50.2949 44.5948L51.7142 46.004L53.1334 47.4132L53.2969 47.2485L51.8776 45.8394ZM51.7142 46.004L50.2999 44.5898L50.1505 44.7392L51.5647 46.1534L52.9789 47.5677L53.1284 47.4182L51.7142 46.004ZM51.5647 46.1534L53.5126 45.6997L53.4647 45.4942L51.5168 45.9479L49.569 46.4017L49.6169 46.6072L51.5647 46.1534ZM51.5168 45.9479L53.4653 45.4967L52.3059 40.4902L50.3574 40.9414L48.409 41.3926L49.5684 46.3992L51.5168 45.9479ZM50.3574 40.9414L52.3062 40.4917L52.2642 40.3095L50.3154 40.7592L48.3666 41.209L48.4087 41.3911L50.3574 40.9414ZM50.3154 40.7592L49.8657 42.708L50.0478 42.7501L50.4975 40.8013L50.9473 38.8525L50.7651 38.8105L50.3154 40.7592ZM50.4975 40.8013H48.4975V40.8024H50.4975H52.4975V40.8013H50.4975Z" fill="url(#paint4_linear_322_382)" mask="url(#path-3-inside-1_322_382)"/>
<mask id="path-5-inside-2_322_382" fill="white">
<path d="M52.9991 35.1735C52.8333 35.1735 52.6722 35.2272 52.5321 35.3288C52.0651 35.6686 51.6552 36.1274 51.3155 36.5314C51.0598 36.8385 51.1053 37.3137 51.4229 37.6371C51.5957 37.8134 51.8386 37.9185 52.0721 37.9185C52.2425 37.9185 52.3978 37.8636 52.5228 37.7585C52.9419 37.4106 53.319 37.0008 53.6845 36.6038L53.7662 36.5139C53.8363 36.438 53.8573 36.3166 53.8713 36.236L53.8748 36.215C53.8771 36.1998 53.8806 36.1835 53.8853 36.1683V36.166C53.883 35.6184 53.486 35.1724 52.9991 35.1724V35.1735Z"/>
</mask>
<path d="M52.9991 35.1735C52.8333 35.1735 52.6722 35.2272 52.5321 35.3288C52.0651 35.6686 51.6552 36.1274 51.3155 36.5314C51.0598 36.8385 51.1053 37.3137 51.4229 37.6371C51.5957 37.8134 51.8386 37.9185 52.0721 37.9185C52.2425 37.9185 52.3978 37.8636 52.5228 37.7585C52.9419 37.4106 53.319 37.0008 53.6845 36.6038L53.7662 36.5139C53.8363 36.438 53.8573 36.3166 53.8713 36.236L53.8748 36.215C53.8771 36.1998 53.8806 36.1835 53.8853 36.1683V36.166C53.883 35.6184 53.486 35.1724 52.9991 35.1724V35.1735Z" fill="url(#paint5_linear_322_382)"/>
<path d="M52.9991 35.1735V37.1735H54.9991V35.1735H52.9991ZM52.5321 35.3288L51.3582 33.7096L51.3555 33.7115L52.5321 35.3288ZM51.3155 36.5314L49.7848 35.2441L49.7786 35.2516L51.3155 36.5314ZM51.4229 37.6371L52.8512 36.2372L52.8499 36.2358L51.4229 37.6371ZM52.5228 37.7585L51.2453 36.2196L51.2354 36.228L52.5228 37.7585ZM53.6845 36.6038L55.156 37.9584L55.1644 37.9491L53.6845 36.6038ZM53.7662 36.5139L52.2966 35.1573L52.2914 35.1629L52.2863 35.1686L53.7662 36.5139ZM53.8713 36.236L55.8418 36.5787L55.8441 36.5648L53.8713 36.236ZM53.8748 36.215L55.8476 36.5438L55.8497 36.5315L55.8516 36.5191L53.8748 36.215ZM53.8853 36.1683L55.7969 36.7565L55.8853 36.469V36.1683H53.8853ZM53.8853 36.166H55.8853L55.8853 36.1574L53.8853 36.166ZM52.9991 35.1724V33.1724H50.9991V35.1724H52.9991ZM52.9991 35.1735V33.1735C52.3908 33.1735 51.8224 33.3731 51.3582 33.7096L52.5321 35.3288L53.706 36.948C53.5221 37.0814 53.2759 37.1735 52.9991 37.1735V35.1735ZM52.5321 35.3288L51.3555 33.7115C50.6768 34.2053 50.1348 34.8281 49.7849 35.2441L51.3155 36.5314L52.8461 37.8187C53.1757 37.4268 53.4534 37.1318 53.7087 36.9461L52.5321 35.3288ZM51.3155 36.5314L49.7786 35.2516C48.7419 36.4966 49.1026 38.1287 49.9959 39.0384L51.4229 37.6371L52.8499 36.2358C53.108 36.4986 53.3777 37.1804 52.8524 37.8112L51.3155 36.5314ZM51.4229 37.6371L49.9946 39.0371C50.5207 39.5739 51.2694 39.9185 52.0721 39.9185V37.9185V35.9185C52.2515 35.9185 52.402 35.9577 52.5198 36.0088C52.6384 36.0601 52.7513 36.1352 52.8512 36.2372L51.4229 37.6371ZM52.0721 37.9185V39.9185C52.6878 39.9185 53.3055 39.7135 53.8101 39.2891L52.5228 37.7585L51.2354 36.228C51.4901 36.0137 51.7972 35.9185 52.0721 35.9185V37.9185ZM52.5228 37.7585L53.8002 39.2974C54.3401 38.8492 54.8069 38.3376 55.1559 37.9584L53.6845 36.6038L52.2131 35.2492C51.8312 35.664 51.5437 35.972 51.2453 36.2196L52.5228 37.7585ZM53.6845 36.6038L55.1644 37.9491L55.2461 37.8592L53.7662 36.5139L52.2863 35.1686L52.2046 35.2585L53.6845 36.6038ZM53.7662 36.5139L55.2358 37.8705C55.5511 37.5289 55.6872 37.168 55.7469 36.979C55.8089 36.7828 55.8372 36.6049 55.8417 36.5787L53.8713 36.236L51.9009 35.8933C51.8914 35.9478 51.9022 35.8708 51.9326 35.7744C51.9608 35.6852 52.0514 35.423 52.2966 35.1573L53.7662 36.5139ZM53.8713 36.236L55.8441 36.5648L55.8476 36.5438L53.8748 36.215L51.902 35.8862L51.8985 35.9072L53.8713 36.236ZM53.8748 36.215L55.8516 36.5191C55.842 36.5809 55.826 36.6618 55.7969 36.7565L53.8853 36.1683L51.9738 35.5801C51.9353 35.7051 51.9122 35.8187 51.8981 35.9109L53.8748 36.215ZM53.8853 36.1683H55.8853V36.166H53.8853H51.8853V36.1683H53.8853ZM53.8853 36.166L55.8853 36.1574C55.8792 34.7392 54.8044 33.1724 52.9991 33.1724V35.1724V37.1724C52.6061 37.1724 52.3037 36.9884 52.1309 36.7946C51.9611 36.6041 51.8862 36.38 51.8853 36.1745L53.8853 36.166ZM52.9991 35.1724H50.9991V35.1735H52.9991H54.9991V35.1724H52.9991Z" fill="url(#paint6_linear_322_382)" mask="url(#path-5-inside-2_322_382)"/>
<mask id="path-7-inside-3_322_382" fill="white">
<path d="M46.3429 41.8288C46.1771 41.8288 46.016 41.8825 45.8758 41.9841C45.4088 42.3239 44.999 42.7827 44.6592 43.1867C44.4035 43.4938 44.4491 43.969 44.7666 44.2924C44.9394 44.4687 45.1823 44.5738 45.4158 44.5738C45.5863 44.5738 45.7416 44.5189 45.8665 44.4138C46.2857 44.0659 46.6628 43.6561 47.0282 43.2591L47.11 43.1692C47.18 43.0933 47.201 42.9719 47.2151 42.8913L47.2186 42.8703C47.2209 42.8551 47.2244 42.8388 47.2291 42.8236V42.8212C47.2267 42.2737 46.8298 41.8276 46.3429 41.8276V41.8288Z"/>
</mask>
<path d="M46.3429 41.8288C46.1771 41.8288 46.016 41.8825 45.8758 41.9841C45.4088 42.3239 44.999 42.7827 44.6592 43.1867C44.4035 43.4938 44.4491 43.969 44.7666 44.2924C44.9394 44.4687 45.1823 44.5738 45.4158 44.5738C45.5863 44.5738 45.7416 44.5189 45.8665 44.4138C46.2857 44.0659 46.6628 43.6561 47.0282 43.2591L47.11 43.1692C47.18 43.0933 47.201 42.9719 47.2151 42.8913L47.2186 42.8703C47.2209 42.8551 47.2244 42.8388 47.2291 42.8236V42.8212C47.2267 42.2737 46.8298 41.8276 46.3429 41.8276V41.8288Z" fill="url(#paint7_linear_322_382)"/>
<path d="M46.3429 41.8288V43.8288H48.3429V41.8288H46.3429ZM45.8758 41.9841L44.7019 40.3649L44.6993 40.3668L45.8758 41.9841ZM44.6592 43.1867L43.1286 41.8994L43.1223 41.9069L44.6592 43.1867ZM44.7666 44.2924L46.195 42.8924L46.1937 42.8911L44.7666 44.2924ZM45.8665 44.4138L44.5891 42.8749L44.5791 42.8833L45.8665 44.4138ZM47.0282 43.2591L48.4997 44.6137L48.5081 44.6044L47.0282 43.2591ZM47.11 43.1692L45.6404 41.8126L45.6352 41.8182L45.6301 41.8238L47.11 43.1692ZM47.2151 42.8913L49.1855 43.234L49.1878 43.2201L47.2151 42.8913ZM47.2186 42.8703L49.1913 43.1991L49.1934 43.1868L49.1953 43.1744L47.2186 42.8703ZM47.2291 42.8236L49.1406 43.4118L49.2291 43.1243V42.8236H47.2291ZM47.2291 42.8212H49.2291L49.229 42.8127L47.2291 42.8212ZM46.3429 41.8276V39.8276H44.3429V41.8276H46.3429ZM46.3429 41.8288V39.8288C45.7345 39.8288 45.1661 40.0283 44.7019 40.3649L45.8758 41.9841L47.0498 43.6033C46.8658 43.7367 46.6196 43.8288 46.3429 43.8288V41.8288ZM45.8758 41.9841L44.6993 40.3668C44.0205 40.8606 43.4785 41.4833 43.1286 41.8994L44.6592 43.1867L46.1899 44.474C46.5195 44.0821 46.7971 43.7871 47.0524 43.6014L45.8758 41.9841ZM44.6592 43.1867L43.1223 41.9069C42.0857 43.1518 42.4464 44.784 43.3396 45.6937L44.7666 44.2924L46.1937 42.8911C46.4517 43.1539 46.7214 43.8357 46.1962 44.4665L44.6592 43.1867ZM44.7666 44.2924L43.3383 45.6923C43.8645 46.2292 44.6132 46.5738 45.4158 46.5738V44.5738V42.5738C45.5953 42.5738 45.7458 42.613 45.8635 42.664C45.9821 42.7154 46.095 42.7905 46.195 42.8924L44.7666 44.2924ZM45.4158 44.5738V46.5738C46.0316 46.5738 46.6493 46.3688 47.1539 45.9444L45.8665 44.4138L44.5791 42.8833C44.8339 42.669 45.141 42.5738 45.4158 42.5738V44.5738ZM45.8665 44.4138L47.1439 45.9527C47.6839 45.5045 48.1506 44.9928 48.4997 44.6137L47.0282 43.2591L45.5568 41.9045C45.175 42.3193 44.8874 42.6273 44.5891 42.8749L45.8665 44.4138ZM47.0282 43.2591L48.5081 44.6044L48.5898 44.5145L47.11 43.1692L45.6301 41.8238L45.5484 41.9137L47.0282 43.2591ZM47.11 43.1692L48.5796 44.5257C48.8949 44.1841 49.031 43.8233 49.0907 43.6342C49.1526 43.4381 49.1809 43.2601 49.1855 43.234L47.2151 42.8913L45.2446 42.5486C45.2352 42.6031 45.2459 42.5261 45.2764 42.4297C45.3045 42.3405 45.3951 42.0783 45.6404 41.8126L47.11 43.1692ZM47.2151 42.8913L49.1878 43.2201L49.1913 43.1991L47.2186 42.8703L45.2458 42.5415L45.2423 42.5625L47.2151 42.8913ZM47.2186 42.8703L49.1953 43.1744C49.1858 43.2362 49.1697 43.3171 49.1406 43.4118L47.2291 42.8236L45.3175 42.2354C45.279 42.3604 45.256 42.474 45.2418 42.5662L47.2186 42.8703ZM47.2291 42.8236H49.2291V42.8212H47.2291H45.2291V42.8236H47.2291ZM47.2291 42.8212L49.229 42.8127C49.223 41.3945 48.1482 39.8276 46.3429 39.8276V41.8276V43.8276C45.9499 43.8276 45.6474 43.6437 45.4747 43.4498C45.3048 43.2593 45.23 43.0353 45.2291 42.8298L47.2291 42.8212ZM46.3429 41.8276H44.3429V41.8288H46.3429H48.3429V41.8276H46.3429Z" fill="url(#paint8_linear_322_382)" mask="url(#path-7-inside-3_322_382)"/>
<mask id="path-9-inside-4_322_382" fill="white">
<path d="M48.4387 34.4052C48.3839 34.954 48.385 35.4993 48.4422 36.0235C48.4924 36.4754 48.8252 36.7567 49.3121 36.7567C49.7803 36.7544 50.1084 36.4777 50.1971 36.0153C50.231 35.832 50.2368 35.637 50.2403 35.4794C50.2415 35.3988 50.2438 35.3288 50.2485 35.2681V35.2599C50.2438 35.1677 50.2426 35.0754 50.2415 34.9855C50.238 34.7952 50.2345 34.6154 50.2053 34.4379C50.1294 33.9756 49.7604 33.6533 49.3062 33.6533C48.8474 33.6568 48.4831 33.9721 48.4387 34.4041V34.4052Z"/>
</mask>
<path d="M48.4387 34.4052C48.3839 34.954 48.385 35.4993 48.4422 36.0235C48.4924 36.4754 48.8252 36.7567 49.3121 36.7567C49.7803 36.7544 50.1084 36.4777 50.1971 36.0153C50.231 35.832 50.2368 35.637 50.2403 35.4794C50.2415 35.3988 50.2438 35.3288 50.2485 35.2681V35.2599C50.2438 35.1677 50.2426 35.0754 50.2415 34.9855C50.238 34.7952 50.2345 34.6154 50.2053 34.4379C50.1294 33.9756 49.7604 33.6533 49.3062 33.6533C48.8474 33.6568 48.4831 33.9721 48.4387 34.4041V34.4052Z" fill="url(#paint9_linear_322_382)"/>
<path d="M48.4387 34.4052L50.4288 34.6042L50.4387 34.505V34.4052H48.4387ZM48.4422 36.0235L46.454 36.2405L46.4545 36.2444L48.4422 36.0235ZM49.3121 36.7567V38.7568L49.3221 38.7567L49.3121 36.7567ZM50.1971 36.0153L52.1613 36.3923L52.1638 36.3786L50.1971 36.0153ZM50.2403 35.4794L52.2398 35.5238L52.24 35.5161L52.2401 35.5084L50.2403 35.4794ZM50.2485 35.2681L52.2426 35.4215L52.2485 35.3449V35.2681H50.2485ZM50.2485 35.2599H52.2485V35.2093L52.2459 35.1588L50.2485 35.2599ZM50.2415 34.9855L52.2413 34.9596L52.2411 34.9487L50.2415 34.9855ZM50.2053 34.4379L48.2317 34.7619L48.2318 34.7625L50.2053 34.4379ZM49.3062 33.6533V31.6533H49.2986L49.291 31.6534L49.3062 33.6533ZM48.4387 34.4041L46.4492 34.1997L46.4387 34.3016V34.4041H48.4387ZM48.4387 34.4052L46.4487 34.2062C46.3806 34.887 46.3811 35.5718 46.454 36.2405L48.4422 36.0235L50.4304 35.8065C50.389 35.4267 50.3871 35.021 50.4288 34.6042L48.4387 34.4052ZM48.4422 36.0235L46.4545 36.2444C46.5301 36.925 46.8418 37.5972 47.4237 38.0882C47.9954 38.5705 48.6823 38.7567 49.3121 38.7567V36.7567V34.7567C49.455 34.7567 49.7321 34.8023 50.0031 35.0309C50.2844 35.2683 50.4046 35.5738 50.43 35.8026L48.4422 36.0235ZM49.3121 36.7567L49.3221 38.7567C49.958 38.7535 50.6266 38.5571 51.1826 38.0905C51.7367 37.6255 52.0435 37.006 52.1613 36.3923L50.1971 36.0153L48.233 35.6384C48.262 35.487 48.3603 35.2371 48.6112 35.0266C48.8639 34.8145 49.1343 34.7576 49.3021 34.7568L49.3121 36.7567ZM50.1971 36.0153L52.1638 36.3786C52.2306 36.0174 52.2365 35.6728 52.2398 35.5238L50.2403 35.4794L48.2408 35.435C48.2391 35.5105 48.2375 35.5604 48.2346 35.6039C48.2317 35.6473 48.2288 35.6603 48.2304 35.652L50.1971 36.0153ZM50.2403 35.4794L52.2401 35.5084C52.2405 35.4784 52.2411 35.4567 52.2417 35.441C52.2423 35.425 52.2427 35.4194 52.2426 35.4215L50.2485 35.2681L48.2544 35.1147C48.245 35.2359 48.2419 35.3534 48.2405 35.4504L50.2403 35.4794ZM50.2485 35.2681H52.2485V35.2599H50.2485H48.2485V35.2681H50.2485ZM50.2485 35.2599L52.2459 35.1588C52.2435 35.1105 52.2426 35.0561 52.2413 34.9596L50.2415 34.9855L48.2416 35.0115C48.2427 35.0947 48.2441 35.2249 48.251 35.361L50.2485 35.2599ZM50.2415 34.9855L52.2411 34.9487C52.2381 34.7829 52.2354 34.4576 52.1788 34.1133L50.2053 34.4379L48.2318 34.7625C48.2311 34.7583 48.2336 34.7715 48.236 34.8159C48.2387 34.8649 48.24 34.9215 48.2418 35.0223L50.2415 34.9855ZM50.2053 34.4379L52.1789 34.114C51.9521 32.7324 50.7872 31.6533 49.3062 31.6533V33.6533V35.6533C48.7337 35.6533 48.3067 35.2188 48.2317 34.7619L50.2053 34.4379ZM49.3062 33.6533L49.291 31.6534C47.9021 31.664 46.6066 32.6668 46.4492 34.1997L48.4387 34.4041L50.4283 34.6084C50.3596 35.2773 49.7927 35.6497 49.3215 35.6533L49.3062 33.6533ZM48.4387 34.4041H46.4387V34.4052H48.4387H50.4387V34.4041H48.4387Z" fill="url(#paint10_linear_322_382)" mask="url(#path-9-inside-4_322_382)"/>
<mask id="path-11-inside-5_322_382" fill="white">
<path d="M47.2296 36.4332C47.1175 36.2849 46.9774 36.1483 46.8642 36.0397C46.8058 35.9837 46.7556 35.9358 46.7136 35.8915L46.7077 35.8868C46.6365 35.8284 46.5676 35.7665 46.5011 35.707C46.3586 35.5809 46.2232 35.4618 46.0726 35.3637C45.9103 35.2575 45.7281 35.2014 45.546 35.2014C45.295 35.2014 45.0603 35.3065 44.8863 35.4968C44.5792 35.8366 44.5652 36.3188 44.8548 36.6434C45.2226 37.0555 45.6242 37.4221 46.0504 37.7339C46.1998 37.8436 46.3668 37.9009 46.5338 37.9009C46.7649 37.9009 46.9938 37.7899 47.1783 37.5879C47.4923 37.2412 47.511 36.8115 47.2296 36.4344V36.4332Z"/>
</mask>
<path d="M47.2296 36.4332C47.1175 36.2849 46.9774 36.1483 46.8642 36.0397C46.8058 35.9837 46.7556 35.9358 46.7136 35.8915L46.7077 35.8868C46.6365 35.8284 46.5676 35.7665 46.5011 35.707C46.3586 35.5809 46.2232 35.4618 46.0726 35.3637C45.9103 35.2575 45.7281 35.2014 45.546 35.2014C45.295 35.2014 45.0603 35.3065 44.8863 35.4968C44.5792 35.8366 44.5652 36.3188 44.8548 36.6434C45.2226 37.0555 45.6242 37.4221 46.0504 37.7339C46.1998 37.8436 46.3668 37.9009 46.5338 37.9009C46.7649 37.9009 46.9938 37.7899 47.1783 37.5879C47.4923 37.2412 47.511 36.8115 47.2296 36.4344V36.4332Z" fill="url(#paint11_linear_322_382)"/>
<path d="M47.2296 36.4332H49.2296V35.7624L48.8251 35.2272L47.2296 36.4332ZM46.8642 36.0397L45.4791 37.4825L45.48 37.4834L46.8642 36.0397ZM46.7136 35.8915L48.1655 34.516L48.0706 34.4158L47.9628 34.3296L46.7136 35.8915ZM46.7077 35.8868L45.4399 37.4336L45.4491 37.4412L45.4585 37.4487L46.7077 35.8868ZM46.5011 35.707L47.8347 34.2165L47.8267 34.2095L46.5011 35.707ZM46.0726 35.3637L44.9771 37.037L44.9812 37.0397L46.0726 35.3637ZM44.8863 35.4968L43.4101 34.1474L43.4025 34.1558L44.8863 35.4968ZM44.8548 36.6434L43.3623 37.9748L43.3625 37.975L44.8548 36.6434ZM46.0504 37.7339L47.2342 36.1219L47.2312 36.1197L46.0504 37.7339ZM47.1783 37.5879L48.6551 38.9367L48.6606 38.9306L47.1783 37.5879ZM47.2296 36.4344H45.2296V37.0983L45.6267 37.6304L47.2296 36.4344ZM47.2296 36.4332L48.8251 35.2272C48.605 34.9361 48.3562 34.6995 48.2483 34.5961L46.8642 36.0397L45.48 37.4834C45.5338 37.5349 45.5697 37.5701 45.6001 37.6019C45.6306 37.634 45.6389 37.6454 45.6342 37.6392L47.2296 36.4332ZM46.8642 36.0397L48.2492 34.597C48.2161 34.5652 48.1974 34.5473 48.1802 34.5305C48.1641 34.5147 48.1615 34.5117 48.1655 34.516L46.7136 35.8915L45.2617 37.2669C45.3443 37.3542 45.4361 37.4412 45.4791 37.4825L46.8642 36.0397ZM46.7136 35.8915L47.9628 34.3296L47.9569 34.3249L46.7077 35.8868L45.4585 37.4487L45.4644 37.4533L46.7136 35.8915ZM46.7077 35.8868L47.9756 34.34C47.9444 34.3144 47.9095 34.2834 47.8347 34.2165L46.5011 35.707L45.1675 37.1975C45.2258 37.2496 45.3287 37.3424 45.4399 37.4336L46.7077 35.8868ZM46.5011 35.707L47.8267 34.2095C47.6999 34.0971 47.4577 33.879 47.1639 33.6877L46.0726 35.3637L44.9812 37.0397C44.9771 37.037 44.9881 37.0438 45.0218 37.0715C45.0588 37.1018 45.1013 37.1389 45.1754 37.2045L46.5011 35.707ZM46.0726 35.3637L47.168 33.6904C46.7015 33.385 46.142 33.2014 45.546 33.2014V35.2014V37.2014C45.3143 37.2014 45.1191 37.13 44.9771 37.037L46.0726 35.3637ZM45.546 35.2014V33.2014C44.7163 33.2014 43.9513 33.5553 43.4101 34.1474L44.8863 35.4968L46.3625 36.8462C46.1692 37.0577 45.8736 37.2014 45.546 37.2014V35.2014ZM44.8863 35.4968L43.4025 34.1558C42.4707 35.1868 42.3346 36.8227 43.3623 37.9748L44.8548 36.6434L46.3472 35.312C46.7958 35.8149 46.6878 36.4863 46.3701 36.8378L44.8863 35.4968ZM44.8548 36.6434L43.3625 37.975C43.8191 38.4866 44.3243 38.9492 44.8696 39.3481L46.0504 37.7339L47.2312 36.1197C46.9242 35.8951 46.6261 35.6244 46.347 35.3118L44.8548 36.6434ZM46.0504 37.7339L44.8666 39.3459C45.324 39.6818 45.8992 39.9009 46.5338 39.9009V37.9009V35.9009C46.8344 35.9009 47.0757 36.0055 47.2342 36.1219L46.0504 37.7339ZM46.5338 37.9009V39.9009C47.4287 39.9009 48.1663 39.4719 48.655 38.9367L47.1783 37.5879L45.7015 36.2392C45.8213 36.108 46.1012 35.9009 46.5338 35.9009V37.9009ZM47.1783 37.5879L48.6606 38.9306C49.0868 38.46 49.3932 37.8351 49.4253 37.111C49.4573 36.3883 49.2084 35.742 48.8326 35.2384L47.2296 36.4344L45.6267 37.6304C45.5323 37.5039 45.4147 37.261 45.4292 36.9341C45.4437 36.6058 45.5838 36.3691 45.6959 36.2453L47.1783 37.5879ZM47.2296 36.4344H49.2296V36.4332H47.2296H45.2296V36.4344H47.2296Z" fill="url(#paint12_linear_322_382)" mask="url(#path-11-inside-5_322_382)"/>
<mask id="path-13-inside-6_322_382" fill="white">
<path d="M44.9853 40.6532C45.0694 40.6556 45.1523 40.6579 45.2352 40.6579C45.3507 40.6579 45.4453 40.6532 45.5317 40.6439C45.9906 40.5937 46.3233 40.2212 46.3245 39.7589C46.3268 39.2895 45.9871 38.91 45.5364 38.8762C45.2842 38.8575 45.025 38.8481 44.7658 38.8481C44.5066 38.8481 44.2556 38.8575 44.0045 38.8762C43.5503 38.9077 43.2199 39.2766 43.2188 39.753C43.2188 40.2224 43.5387 40.589 43.9999 40.6427C44.0816 40.652 44.1703 40.6567 44.2801 40.6567C44.3548 40.6567 44.4295 40.6544 44.5054 40.652C44.5848 40.6497 44.6607 40.6474 44.7424 40.6474C44.8242 40.6474 44.9047 40.6497 44.9853 40.652V40.6532Z"/>
</mask>
<path d="M44.9853 40.6532C45.0694 40.6556 45.1523 40.6579 45.2352 40.6579C45.3507 40.6579 45.4453 40.6532 45.5317 40.6439C45.9906 40.5937 46.3233 40.2212 46.3245 39.7589C46.3268 39.2895 45.9871 38.91 45.5364 38.8762C45.2842 38.8575 45.025 38.8481 44.7658 38.8481C44.5066 38.8481 44.2556 38.8575 44.0045 38.8762C43.5503 38.9077 43.2199 39.2766 43.2188 39.753C43.2188 40.2224 43.5387 40.589 43.9999 40.6427C44.0816 40.652 44.1703 40.6567 44.2801 40.6567C44.3548 40.6567 44.4295 40.6544 44.5054 40.652C44.5848 40.6497 44.6607 40.6474 44.7424 40.6474C44.8242 40.6474 44.9047 40.6497 44.9853 40.652V40.6532Z" fill="url(#paint13_linear_322_382)"/>
<path d="M44.9853 40.6532H42.9853V42.5984L44.9298 42.6524L44.9853 40.6532ZM45.5317 40.6439L45.7467 42.6323L45.7493 42.632L45.5317 40.6439ZM46.3245 39.7589L44.3245 39.7489L44.3245 39.7538L46.3245 39.7589ZM45.5364 38.8762L45.6862 36.8818L45.6841 36.8816L45.5364 38.8762ZM44.0045 38.8762L44.143 40.8714L44.153 40.8707L44.0045 38.8762ZM43.2188 39.753L41.2188 39.7481V39.753H43.2188ZM43.9999 40.6427L43.7685 42.6293L43.7728 42.6298L43.9999 40.6427ZM44.5054 40.652L44.4466 38.6529L44.4439 38.653L44.5054 40.652ZM44.9853 40.652H46.9853V38.7092L45.0432 38.6529L44.9853 40.652ZM44.9853 40.6532L44.9298 42.6524C45.0083 42.6546 45.1196 42.6579 45.2352 42.6579V40.6579V38.6579C45.185 38.6579 45.1304 38.6565 45.0408 38.654L44.9853 40.6532ZM45.2352 40.6579V42.6579C45.4053 42.6579 45.5736 42.651 45.7467 42.6323L45.5317 40.6439L45.3168 38.6555C45.3162 38.6555 45.311 38.6561 45.299 38.6567C45.2865 38.6573 45.2661 38.6579 45.2352 38.6579V40.6579ZM45.5317 40.6439L45.7493 42.632C47.2279 42.4702 48.3208 41.2373 48.3245 39.7639L46.3245 39.7589L44.3245 39.7538C44.3259 39.2052 44.7532 38.7171 45.3142 38.6557L45.5317 40.6439ZM46.3245 39.7589L48.3245 39.7688C48.3317 38.3085 47.2424 36.9987 45.6862 36.8818L45.5364 38.8762L45.3866 40.8705C44.7318 40.8213 44.3219 40.2705 44.3245 39.7489L46.3245 39.7589ZM45.5364 38.8762L45.6841 36.8816C45.3809 36.8592 45.0724 36.8481 44.7658 36.8481V38.8481V40.8481C44.9776 40.8481 45.1875 40.8558 45.3886 40.8707L45.5364 38.8762ZM44.7658 38.8481V36.8481C44.4577 36.8481 44.1572 36.8593 43.8561 36.8817L44.0045 38.8762L44.153 40.8707C44.3539 40.8557 44.5554 40.8481 44.7658 40.8481V38.8481ZM44.0045 38.8762L43.866 36.881C42.2886 36.9905 41.2223 38.3016 41.2188 39.7481L43.2188 39.753L45.2187 39.7579C45.2182 39.9873 45.1346 40.2555 44.9313 40.4824C44.7249 40.7127 44.4371 40.851 44.143 40.8714L44.0045 38.8762ZM43.2188 39.753H41.2188C41.2188 41.2094 42.2715 42.4549 43.7685 42.6293L43.9999 40.6427L44.2312 38.6561C44.48 38.6851 44.7428 38.81 44.9405 39.0355C45.1366 39.2594 45.2188 39.5246 45.2188 39.753H43.2188ZM43.9999 40.6427L43.7728 42.6298C43.9457 42.6495 44.1122 42.6567 44.2801 42.6567V40.6567V38.6567C44.2534 38.6567 44.238 38.6561 44.2306 38.6558C44.2238 38.6554 44.2233 38.6552 44.227 38.6556L43.9999 40.6427ZM44.2801 40.6567V42.6567C44.391 42.6567 44.4972 42.6532 44.5669 42.6511L44.5054 40.652L44.4439 38.653C44.3618 38.6555 44.3186 38.6567 44.2801 38.6567V40.6567ZM44.5054 40.652L44.5642 42.6512C44.6499 42.6487 44.6955 42.6474 44.7424 42.6474V40.6474V38.6474C44.626 38.6474 44.5198 38.6508 44.4466 38.6529L44.5054 40.652ZM44.7424 40.6474V42.6474C44.7905 42.6474 44.8422 42.6487 44.9273 42.6512L44.9853 40.652L45.0432 38.6529C44.9672 38.6507 44.8579 38.6474 44.7424 38.6474V40.6474ZM44.9853 40.652H42.9853V40.6532H44.9853H46.9853V40.652H44.9853Z" fill="url(#paint14_linear_322_382)" mask="url(#path-13-inside-6_322_382)"/>
<defs>
<linearGradient id="paint0_linear_322_382" x1="0.5" y1="50" x2="100.5" y2="50" gradientUnits="userSpaceOnUse">
<stop stop-color="#7DA0DC"/>
<stop offset="1" stop-color="#7DA0DC"/>
</linearGradient>
<linearGradient id="paint1_linear_322_382" x1="27" y1="49.6901" x2="75" y2="49.6901" gradientUnits="userSpaceOnUse">
<stop stop-color="#7DA0DC"/>
<stop offset="1" stop-color="#7DA0DC"/>
</linearGradient>
<linearGradient id="paint2_linear_322_382" x1="27" y1="49.6901" x2="75" y2="49.6901" gradientUnits="userSpaceOnUse">
<stop stop-color="#7DA0DC"/>
<stop offset="1" stop-color="#7DA0DC"/>
</linearGradient>
<linearGradient id="paint3_linear_322_382" x1="48.1875" y1="43.9263" x2="58.7692" y2="43.9263" gradientUnits="userSpaceOnUse">
<stop stop-color="#7DA0DC"/>
<stop offset="1" stop-color="#7DA0DC"/>
</linearGradient>
<linearGradient id="paint4_linear_322_382" x1="48.1875" y1="43.9263" x2="58.7692" y2="43.9263" gradientUnits="userSpaceOnUse">
<stop stop-color="#7DA0DC"/>
<stop offset="1" stop-color="#7DA0DC"/>
</linearGradient>
<linearGradient id="paint5_linear_322_382" x1="51.1504" y1="36.5454" x2="53.8853" y2="36.5454" gradientUnits="userSpaceOnUse">
<stop stop-color="#7DA0DC"/>
<stop offset="1" stop-color="#7DA0DC"/>
</linearGradient>
<linearGradient id="paint6_linear_322_382" x1="51.1504" y1="36.5454" x2="53.8853" y2="36.5454" gradientUnits="userSpaceOnUse">
<stop stop-color="#7DA0DC"/>
<stop offset="1" stop-color="#7DA0DC"/>
</linearGradient>
<linearGradient id="paint7_linear_322_382" x1="44.4941" y1="43.2007" x2="47.2291" y2="43.2007" gradientUnits="userSpaceOnUse">
<stop stop-color="#7DA0DC"/>
<stop offset="1" stop-color="#7DA0DC"/>
</linearGradient>
<linearGradient id="paint8_linear_322_382" x1="44.4941" y1="43.2007" x2="47.2291" y2="43.2007" gradientUnits="userSpaceOnUse">
<stop stop-color="#7DA0DC"/>
<stop offset="1" stop-color="#7DA0DC"/>
</linearGradient>
<linearGradient id="paint9_linear_322_382" x1="48.3984" y1="35.205" x2="50.2485" y2="35.205" gradientUnits="userSpaceOnUse">
<stop stop-color="#7DA0DC"/>
<stop offset="1" stop-color="#7DA0DC"/>
</linearGradient>
<linearGradient id="paint10_linear_322_382" x1="48.3984" y1="35.205" x2="50.2485" y2="35.205" gradientUnits="userSpaceOnUse">
<stop stop-color="#7DA0DC"/>
<stop offset="1" stop-color="#7DA0DC"/>
</linearGradient>
<linearGradient id="paint11_linear_322_382" x1="44.6465" y1="36.5511" x2="47.428" y2="36.5511" gradientUnits="userSpaceOnUse">
<stop stop-color="#7DA0DC"/>
<stop offset="1" stop-color="#7DA0DC"/>
</linearGradient>
<linearGradient id="paint12_linear_322_382" x1="44.6465" y1="36.5511" x2="47.428" y2="36.5511" gradientUnits="userSpaceOnUse">
<stop stop-color="#7DA0DC"/>
<stop offset="1" stop-color="#7DA0DC"/>
</linearGradient>
<linearGradient id="paint13_linear_322_382" x1="43.2188" y1="39.753" x2="46.3245" y2="39.753" gradientUnits="userSpaceOnUse">
<stop stop-color="#7DA0DC"/>
<stop offset="1" stop-color="#7DA0DC"/>
</linearGradient>
<linearGradient id="paint14_linear_322_382" x1="43.2188" y1="39.753" x2="46.3245" y2="39.753" gradientUnits="userSpaceOnUse">
<stop stop-color="#7DA0DC"/>
<stop offset="1" stop-color="#7DA0DC"/>
</linearGradient>
</defs>
</svg>
